<svg xmlns="http://www.w3.org/2000/svg" xmlns:xlink="http://www.w3.org/1999/xlink" width="110.508" height="73" viewBox="0 0 110.508 73">
  <defs>
    <style>
      .cls-1, .cls-3 {
        fill: #fff;
      }

      .cls-1 {
        opacity: 0;
      }

      .cls-2 {
        fill: #c3e0fd;
      }

      .cls-4 {
        filter: url(#联合_6-2);
      }

      .cls-5 {
        filter: url(#联合_6);
      }

      .cls-6 {
        filter: url(#联合_7-2);
      }

      .cls-7 {
        filter: url(#联合_7);
      }
    </style>
    <filter id="联合_7" x="0" y="0" width="92.457" height="64.331" filterUnits="userSpaceOnUse">
      <feOffset dy="3" input="SourceAlpha"/>
      <feGaussianBlur stdDeviation="3" result="blur"/>
      <feFlood flood-opacity="0.161"/>
      <feComposite operator="in" in2="blur"/>
      <feComposite in="SourceGraphic"/>
    </filter>
    <filter id="联合_7-2" x="0" y="0" width="92.457" height="64.331" filterUnits="userSpaceOnUse">
      <feOffset dy="3" input="SourceAlpha"/>
      <feGaussianBlur stdDeviation="1" result="blur-2"/>
      <feFlood flood-opacity="0.161" result="color"/>
      <feComposite operator="out" in="SourceGraphic" in2="blur-2"/>
      <feComposite operator="in" in="color"/>
      <feComposite operator="in" in2="SourceGraphic"/>
    </filter>
    <filter id="联合_6" x="30.118" y="7.888" width="80.391" height="58.876" filterUnits="userSpaceOnUse">
      <feOffset dy="3" input="SourceAlpha"/>
      <feGaussianBlur stdDeviation="3" result="blur-3"/>
      <feFlood flood-opacity="0.161"/>
      <feComposite operator="in" in2="blur-3"/>
      <feComposite in="SourceGraphic"/>
    </filter>
    <filter id="联合_6-2" x="30.118" y="7.888" width="80.391" height="58.876" filterUnits="userSpaceOnUse">
      <feOffset dy="3" input="SourceAlpha"/>
      <feGaussianBlur stdDeviation="1" result="blur-4"/>
      <feFlood flood-opacity="0.161" result="color-2"/>
      <feComposite operator="out" in="SourceGraphic" in2="blur-4"/>
      <feComposite operator="in" in="color-2"/>
      <feComposite operator="in" in2="SourceGraphic"/>
    </filter>
  </defs>
  <g id="cityIcon04" transform="translate(9 6)">
    <rect id="矩形_181" data-name="矩形 181" class="cls-1" width="93" height="67" transform="translate(-0.301)"/>
    <g id="组_196" data-name="组 196" transform="translate(0 0)">
      <g data-type="innerShadowGroup">
        <g class="cls-7" transform="matrix(1, 0, 0, 1, -9, -6)">
          <path id="联合_7-3" data-name="联合 7" class="cls-2" d="M12.411,46.331h-.035a12.385,12.385,0,0,1-1.41-24.69,12.429,12.429,0,0,1,12.388-11.1q.493,0,.977.038a16.209,16.209,0,0,1,31.3,3.751,16.249,16.249,0,0,1,15.586,6.261,16.023,16.023,0,0,1,1.609,16.633,16.207,16.207,0,0,1-14.1,9.1q-.121.006-.244.006Z" transform="translate(9.02 6)"/>
        </g>
        <g class="cls-6" transform="matrix(1, 0, 0, 1, -9, -6)">
          <path id="联合_7-4" data-name="联合 7" class="cls-3" d="M12.411,46.331h-.035a12.385,12.385,0,0,1-1.41-24.69,12.429,12.429,0,0,1,12.388-11.1q.493,0,.977.038a16.209,16.209,0,0,1,31.3,3.751,16.249,16.249,0,0,1,15.586,6.261,16.023,16.023,0,0,1,1.609,16.633,16.207,16.207,0,0,1-14.1,9.1q-.121.006-.244.006Z" transform="translate(9.02 6)"/>
        </g>
      </g>
      <g data-type="innerShadowGroup">
        <g class="cls-5" transform="matrix(1, 0, 0, 1, -9, -6)">
          <path id="联合_6-3" data-name="联合 6" class="cls-3" d="M19.68,32.127a15.944,15.944,0,0,1-3.6.409A16.174,16.174,0,0,1,0,16.267,16.174,16.174,0,0,1,16.079,0q.26,0,.517.008Q16.817,0,17.04,0H47a11.942,11.942,0,0,1,1.5.094A12.37,12.37,0,0,1,62.39,12.513,12.441,12.441,0,0,1,50.022,25.028h-.005a16.046,16.046,0,0,1-30.334,7.1Z" transform="translate(101.51 54.76) rotate(180)"/>
        </g>
        <g class="cls-4" transform="matrix(1, 0, 0, 1, -9, -6)">
          <path id="联合_6-4" data-name="联合 6" class="cls-3" d="M19.68,32.127a15.944,15.944,0,0,1-3.6.409A16.174,16.174,0,0,1,0,16.267,16.174,16.174,0,0,1,16.079,0q.26,0,.517.008Q16.817,0,17.04,0H47a11.942,11.942,0,0,1,1.5.094A12.37,12.37,0,0,1,62.39,12.513,12.441,12.441,0,0,1,50.022,25.028h-.005a16.046,16.046,0,0,1-30.334,7.1Z" transform="translate(101.51 54.76) rotate(180)"/>
        </g>
      </g>
    </g>
  </g>
</svg>
