<svg xmlns="http://www.w3.org/2000/svg" width="30" height="40" viewBox="0 0 30 40">
  <defs>
    <style>
      .cls-1 {
        fill: #4092fb;
      }
    </style>
  </defs>
  <path id="moisture" class="cls-1" d="M165.506,45.074,155.119,32.108a1.249,1.249,0,0,0-2.05,0L142.681,45.074a16.87,16.87,0,0,0,0,20.8,14.033,14.033,0,0,0,11.344,5.7,14.767,14.767,0,0,0,11.481-5.557,17.077,17.077,0,0,0,0-20.944Zm-2.187,19.092a11.752,11.752,0,0,1-18.588,0,13.984,13.984,0,0,1,0-17.24l9.294-11.541,9.294,11.683a13.419,13.419,0,0,1,0,17.1ZM152.932,52.625c0-2.992-1.093-3.847-2.87-3.847s-2.87.855-2.87,3.847,1.093,3.847,2.87,3.847C151.839,56.329,152.932,55.617,152.932,52.625Zm-3.964,0c0-1.852.273-2.28,1.093-2.28s1.093.427,1.093,2.28-.273,2.28-1.093,2.28S148.968,54.477,148.968,52.625Zm7.927-3.7-7.517,13.82h1.777l7.517-13.82Zm1.093,6.554c-1.777,0-2.87.855-2.87,3.847s1.093,3.847,2.87,3.847,2.87-.855,2.87-3.847S159.766,55.474,157.989,55.474Zm0,6.126c-.82,0-1.093-.427-1.093-2.28s.273-2.28,1.093-2.28,1.093.427,1.093,2.28C159.082,61.031,158.809,61.6,157.989,61.6Z" transform="translate(-139.094 -31.574)"/>
</svg>
