<svg xmlns="http://www.w3.org/2000/svg" xmlns:xlink="http://www.w3.org/1999/xlink" width="75.35" height="48.231" viewBox="0 0 75.35 48.231">
  <defs>
    <style>
      .cls-1, .cls-3 {
        fill: #fff;
      }

      .cls-1 {
        opacity: 0;
      }

      .cls-2 {
        fill: #c3e0fd;
      }

      .cls-4 {
        filter: url(#联合_6-2);
      }

      .cls-5 {
        filter: url(#联合_6);
      }

      .cls-6 {
        filter: url(#联合_7-2);
      }

      .cls-7 {
        filter: url(#联合_7);
      }
    </style>
    <filter id="联合_7" x="0" y="0" width="64.159" height="46.723" filterUnits="userSpaceOnUse">
      <feOffset dy="3" input="SourceAlpha"/>
      <feGaussianBlur stdDeviation="3" result="blur"/>
      <feFlood flood-opacity="0.161"/>
      <feComposite operator="in" in2="blur"/>
      <feComposite in="SourceGraphic"/>
    </filter>
    <filter id="联合_7-2" x="0" y="0" width="64.159" height="46.723" filterUnits="userSpaceOnUse">
      <feOffset dy="3" input="SourceAlpha"/>
      <feGaussianBlur stdDeviation="1" result="blur-2"/>
      <feFlood flood-opacity="0.161" result="color"/>
      <feComposite operator="out" in="SourceGraphic" in2="blur-2"/>
      <feComposite operator="in" in="color"/>
      <feComposite operator="in" in2="SourceGraphic"/>
    </filter>
    <filter id="联合_6" x="18.671" y="4.89" width="56.678" height="43.341" filterUnits="userSpaceOnUse">
      <feOffset dy="3" input="SourceAlpha"/>
      <feGaussianBlur stdDeviation="3" result="blur-3"/>
      <feFlood flood-opacity="0.161"/>
      <feComposite operator="in" in2="blur-3"/>
      <feComposite in="SourceGraphic"/>
    </filter>
    <filter id="联合_6-2" x="18.671" y="4.89" width="56.678" height="43.341" filterUnits="userSpaceOnUse">
      <feOffset dy="3" input="SourceAlpha"/>
      <feGaussianBlur stdDeviation="1" result="blur-4"/>
      <feFlood flood-opacity="0.161" result="color-2"/>
      <feComposite operator="out" in="SourceGraphic" in2="blur-4"/>
      <feComposite operator="in" in="color-2"/>
      <feComposite operator="in" in2="SourceGraphic"/>
    </filter>
  </defs>
  <g id="countyWeatherIcon04" transform="translate(8.813 6)">
    <rect id="矩形_181" data-name="矩形 181" class="cls-1" width="57.655" height="41.536" transform="translate(0)"/>
    <g id="组_196" data-name="组 196" transform="translate(0.186 0)">
      <g data-type="innerShadowGroup">
        <g class="cls-7" transform="matrix(1, 0, 0, 1, -9, -6)">
          <path id="联合_7-3" data-name="联合 7" class="cls-2" d="M7.687,28.723H7.665a7.678,7.678,0,0,1-.874-15.307,7.705,7.705,0,0,1,7.68-6.88q.305,0,.606.023a10.048,10.048,0,0,1,19.4,2.325,10.073,10.073,0,0,1,9.663,3.881,9.934,9.934,0,0,1,1,10.311,10.048,10.048,0,0,1-8.741,5.64q-.075,0-.151,0Z" transform="translate(9.02 6)"/>
        </g>
        <g class="cls-6" transform="matrix(1, 0, 0, 1, -9, -6)">
          <path id="联合_7-4" data-name="联合 7" class="cls-3" d="M7.687,28.723H7.665a7.678,7.678,0,0,1-.874-15.307,7.705,7.705,0,0,1,7.68-6.88q.305,0,.606.023a10.048,10.048,0,0,1,19.4,2.325,10.073,10.073,0,0,1,9.663,3.881,9.934,9.934,0,0,1,1,10.311,10.048,10.048,0,0,1-8.741,5.64q-.075,0-.151,0Z" transform="translate(9.02 6)"/>
        </g>
      </g>
      <g data-type="innerShadowGroup">
        <g class="cls-5" transform="matrix(1, 0, 0, 1, -9, -6)">
          <path id="联合_6-3" data-name="联合 6" class="cls-3" d="M12.2,19.917a9.885,9.885,0,0,1-2.233.254A10.027,10.027,0,0,1,0,10.085,10.027,10.027,0,0,1,9.968,0q.161,0,.321,0,.137,0,.276,0H29.137a7.4,7.4,0,0,1,.929.058,7.668,7.668,0,0,1,8.612,7.7,7.713,7.713,0,0,1-7.667,7.758h0a9.947,9.947,0,0,1-18.805,4.4Z" transform="translate(66.35 36.23) rotate(180)"/>
        </g>
        <g class="cls-4" transform="matrix(1, 0, 0, 1, -9, -6)">
          <path id="联合_6-4" data-name="联合 6" class="cls-3" d="M12.2,19.917a9.885,9.885,0,0,1-2.233.254A10.027,10.027,0,0,1,0,10.085,10.027,10.027,0,0,1,9.968,0q.161,0,.321,0,.137,0,.276,0H29.137a7.4,7.4,0,0,1,.929.058,7.668,7.668,0,0,1,8.612,7.7,7.713,7.713,0,0,1-7.667,7.758h0a9.947,9.947,0,0,1-18.805,4.4Z" transform="translate(66.35 36.23) rotate(180)"/>
        </g>
      </g>
    </g>
  </g>
</svg>
