<svg id="CountyUV" xmlns="http://www.w3.org/2000/svg" width="71.488" height="70" viewBox="0 0 71.488 70">
  <defs>
    <style>
      .cls-1 {
        fill: #ee4e60;
      }

      .cls-2 {
        fill: #303030;
        font-size: 20px;
        font-family: NotoSansTC-Bold, Noto Sans TC;
        font-weight: 700;
      }
    </style>
  </defs>
  <path id="减去_2" data-name="减去 2" class="cls-1" d="M34.822,70a3.128,3.128,0,0,1-3.131-3.122v-.764A3.122,3.122,0,0,1,34.7,62.87h.123a3.128,3.128,0,0,1,3.122,3.005v1A3.131,3.131,0,0,1,34.821,70Zm22.523-9.343h-.019a3.082,3.082,0,0,1-2.2-.926l-.538-.537A3.122,3.122,0,0,1,59,54.785l.538.537a3.117,3.117,0,0,1-2.192,5.334Zm-45.071,0a3.11,3.11,0,0,1-2.195-5.32l.538-.537a3.122,3.122,0,0,1,4.419,4.408l-.542.537a3.122,3.122,0,0,1-2.2.912h-.015ZM34.8,56.633h-.022a21.8,21.8,0,0,1-4.351-.443,21.573,21.573,0,0,1-16.8-16.8,21.75,21.75,0,0,1,.009-8.692,21.436,21.436,0,0,1,3.253-7.709,21.577,21.577,0,0,1,17.9-9.5h.024a21.6,21.6,0,0,1,7.35,1.3v6.091a15.916,15.916,0,0,0-3.509-1.324,16.081,16.081,0,0,0-3.846-.464h0a15.965,15.965,0,1,0,0,31.929h0A15.986,15.986,0,0,0,50.319,38.962H56.05A21.588,21.588,0,0,1,34.8,56.631ZM3.722,38.192H2.965v-.009a3.122,3.122,0,0,1-.009-6.232h.77a3.122,3.122,0,1,1,0,6.243Zm9.094-21.984H12.81a3.09,3.09,0,0,1-2.206-.926l-.524-.533a3.116,3.116,0,0,1,4.41-4.4l.524.533a3.116,3.116,0,0,1-2.2,5.329ZM34.822,7.123h-.009a3.122,3.122,0,0,1-3.122-3.116V3.244A3.122,3.122,0,0,1,34.7,0h.12a3.127,3.127,0,0,1,3.122,3.007V4a3.131,3.131,0,0,1-3.122,3.122Z" transform="translate(-0.027)"/>
  <text id="UV" class="cls-2" transform="translate(43.488 30.344)"><tspan x="0" y="0">UV</tspan></text>
</svg>
