<svg xmlns="http://www.w3.org/2000/svg" width="62" height="50" viewBox="0 0 62 50">
  <defs>
    <style>
      .cls-1 {
        fill: #ffd939;
      }
    </style>
  </defs>
  <path id="sunrise" class="cls-1" d="M31,121.983a2.043,2.043,0,0,0,1.943-2.125v-9l-.248-3.625,1.777,2.042,3.017,3.042a1.982,1.982,0,0,0,1.323.542,1.58,1.58,0,0,0,1.653-1.625,1.7,1.7,0,0,0-.579-1.292l-7.564-6.917A1.849,1.849,0,0,0,31,102.4a1.919,1.919,0,0,0-1.323.625l-7.523,6.958a1.63,1.63,0,0,0,1.075,2.875,1.882,1.882,0,0,0,1.281-.542l3.265-3.25,1.529-1.792-.289,3.583v8.958A2.116,2.116,0,0,0,31,121.983Zm12.483,6.542a2.077,2.077,0,0,0,2.935-.125l4.216-4.167a1.946,1.946,0,0,0,.083-2.875,2.026,2.026,0,0,0-2.893.083l-4.216,4.167a2.068,2.068,0,0,0-.124,2.917Zm-24.965,0a2.036,2.036,0,0,0-.165-2.917l-4.216-4.167a2.024,2.024,0,0,0-2.893-.083,1.986,1.986,0,0,0,.165,2.875l4.216,4.167A1.993,1.993,0,0,0,18.517,128.525ZM2.108,152.4H59.892a1.944,1.944,0,1,0,0-3.875H41.705a12.683,12.683,0,0,0,2.521-7.625,13.227,13.227,0,0,0-26.453,0,12.591,12.591,0,0,0,2.521,7.625H2.108a1.944,1.944,0,1,0,0,3.875Zm19.551-11.458a9.342,9.342,0,0,1,18.683,0,9.167,9.167,0,0,1-4.133,7.625H25.792a9.279,9.279,0,0,1-4.133-7.625ZM5.249,142.275H11.2a1.971,1.971,0,1,0,0-3.917H5.249a1.967,1.967,0,1,0,0,3.917Zm45.591,0h5.952a1.967,1.967,0,1,0,0-3.917H50.84a1.971,1.971,0,1,0,0,3.917Z" transform="translate(0 -102.4)"/>
</svg>
