<svg xmlns="http://www.w3.org/2000/svg" width="56.53" height="43.53" viewBox="0 0 56.53 43.53">
  <defs>
    <style>
      .cls-1 {
        fill: #4092fb;
      }

      .cls-2 {
        fill: none;
        stroke: #4092fb;
        stroke-linecap: round;
        stroke-width: 5px;
      }
    </style>
  </defs>
  <g id="countyWind" transform="translate(3.531 2.171)">
    <path id="减去_6" data-name="减去 6" class="cls-1" d="M17.451,39.674h0A7.717,7.717,0,0,1,9.5,32.239V29.753H14.8v2.479a2.577,2.577,0,0,0,2.65,2.468h.012A2.579,2.579,0,0,0,20.1,32.232V31a3.858,3.858,0,0,0-3.975-3.718H0l5.277-4.96H16.125a9.547,9.547,0,0,1,6.558,2.541A8.348,8.348,0,0,1,25.4,30.992v1.239a7.156,7.156,0,0,1-2.328,5.259,8.183,8.183,0,0,1-5.621,2.183ZM36.984,17.4H10.52l5.294-4.973H36.983A3.844,3.844,0,0,0,40.922,8.7V7.452a2.566,2.566,0,0,0-2.627-2.475h-.012a2.569,2.569,0,0,0-2.613,2.475V9.939H30.417V7.452a7.888,7.888,0,0,1,15.76,0V8.7a8.42,8.42,0,0,1-2.692,6.154,9.4,9.4,0,0,1-6.5,2.549Z" transform="translate(6.822 1.685)"/>
    <line id="直线_4" data-name="直线 4" class="cls-2" x1="31.972" y2="35.737" transform="translate(-0.001 1.359)"/>
  </g>
</svg>
