<svg xmlns="http://www.w3.org/2000/svg" xmlns:xlink="http://www.w3.org/1999/xlink" width="75.794" height="59.79" viewBox="0 0 75.794 59.79">
  <defs>
    <style>
      .cls-1, .cls-3 {
        fill: #fff;
      }

      .cls-1 {
        opacity: 0;
      }

      .cls-2 {
        fill: #4092fb;
      }

      .cls-4 {
        fill: #ececec;
      }

      .cls-5 {
        fill: #cecece;
      }

      .cls-6 {
        filter: url(#填色_水滴_水_油-10);
      }

      .cls-7 {
        filter: url(#填色_水滴_水_油-9);
      }

      .cls-8 {
        filter: url(#填色_水滴_水_油-8);
      }

      .cls-9 {
        filter: url(#填色_水滴_水_油-7);
      }

      .cls-10 {
        filter: url(#联合_6-2);
      }

      .cls-11 {
        filter: url(#联合_6);
      }

      .cls-12 {
        filter: url(#联合_7-2);
      }

      .cls-13 {
        filter: url(#联合_7);
      }

      .cls-14 {
        filter: url(#填色_水滴_水_油-6);
      }

      .cls-15 {
        filter: url(#填色_水滴_水_油-5);
      }

      .cls-16 {
        filter: url(#填色_水滴_水_油-4);
      }

      .cls-17 {
        filter: url(#填色_水滴_水_油-3);
      }

      .cls-18 {
        filter: url(#填色_水滴_水_油-2);
      }

      .cls-19 {
        filter: url(#填色_水滴_水_油);
      }
    </style>
    <filter id="填色_水滴_水_油" x="40.728" y="24.288" width="25.588" height="27.064" filterUnits="userSpaceOnUse">
      <feOffset dy="3" input="SourceAlpha"/>
      <feGaussianBlur stdDeviation="3" result="blur"/>
      <feFlood flood-opacity="0.161"/>
      <feComposite operator="in" in2="blur"/>
      <feComposite in="SourceGraphic"/>
    </filter>
    <filter id="填色_水滴_水_油-2" x="40.728" y="24.288" width="25.588" height="27.064" filterUnits="userSpaceOnUse">
      <feOffset dy="3" input="SourceAlpha"/>
      <feGaussianBlur stdDeviation="3" result="blur-2"/>
      <feFlood flood-opacity="0.302" result="color"/>
      <feComposite operator="out" in="SourceGraphic" in2="blur-2"/>
      <feComposite operator="in" in="color"/>
      <feComposite operator="in" in2="SourceGraphic"/>
    </filter>
    <filter id="填色_水滴_水_油-3" x="8.961" y="24.288" width="25.992" height="27.374" filterUnits="userSpaceOnUse">
      <feOffset dy="3" input="SourceAlpha"/>
      <feGaussianBlur stdDeviation="3" result="blur-3"/>
      <feFlood flood-opacity="0.161"/>
      <feComposite operator="in" in2="blur-3"/>
      <feComposite in="SourceGraphic"/>
    </filter>
    <filter id="填色_水滴_水_油-4" x="8.961" y="24.288" width="25.992" height="27.374" filterUnits="userSpaceOnUse">
      <feOffset dy="3" input="SourceAlpha"/>
      <feGaussianBlur stdDeviation="3" result="blur-4"/>
      <feFlood flood-opacity="0.302" result="color-2"/>
      <feComposite operator="out" in="SourceGraphic" in2="blur-4"/>
      <feComposite operator="in" in="color-2"/>
      <feComposite operator="in" in2="SourceGraphic"/>
    </filter>
    <filter id="填色_水滴_水_油-5" x="24.823" y="23.981" width="25.992" height="27.374" filterUnits="userSpaceOnUse">
      <feOffset dy="3" input="SourceAlpha"/>
      <feGaussianBlur stdDeviation="3" result="blur-5"/>
      <feFlood flood-opacity="0.161"/>
      <feComposite operator="in" in2="blur-5"/>
      <feComposite in="SourceGraphic"/>
    </filter>
    <filter id="填色_水滴_水_油-6" x="24.823" y="23.981" width="25.992" height="27.374" filterUnits="userSpaceOnUse">
      <feOffset dy="3" input="SourceAlpha"/>
      <feGaussianBlur stdDeviation="3" result="blur-6"/>
      <feFlood flood-opacity="0.302" result="color-3"/>
      <feComposite operator="out" in="SourceGraphic" in2="blur-6"/>
      <feComposite operator="in" in="color-3"/>
      <feComposite operator="in" in2="SourceGraphic"/>
    </filter>
    <filter id="联合_7" x="0" y="0" width="64.159" height="46.862" filterUnits="userSpaceOnUse">
      <feOffset dy="3" input="SourceAlpha"/>
      <feGaussianBlur stdDeviation="3" result="blur-7"/>
      <feFlood flood-opacity="0.161"/>
      <feComposite operator="in" in2="blur-7"/>
      <feComposite in="SourceGraphic"/>
    </filter>
    <filter id="联合_7-2" x="0" y="0" width="64.159" height="46.862" filterUnits="userSpaceOnUse">
      <feOffset dy="3" input="SourceAlpha"/>
      <feGaussianBlur stdDeviation="1" result="blur-8"/>
      <feFlood flood-opacity="0.161" result="color-4"/>
      <feComposite operator="out" in="SourceGraphic" in2="blur-8"/>
      <feComposite operator="in" in="color-4"/>
      <feComposite operator="in" in2="SourceGraphic"/>
    </filter>
    <filter id="联合_6" x="19.116" y="5.029" width="56.678" height="43.341" filterUnits="userSpaceOnUse">
      <feOffset dy="3" input="SourceAlpha"/>
      <feGaussianBlur stdDeviation="3" result="blur-9"/>
      <feFlood flood-opacity="0.161"/>
      <feComposite operator="in" in2="blur-9"/>
      <feComposite in="SourceGraphic"/>
    </filter>
    <filter id="联合_6-2" x="19.116" y="5.029" width="56.678" height="43.341" filterUnits="userSpaceOnUse">
      <feOffset dy="3" input="SourceAlpha"/>
      <feGaussianBlur stdDeviation="1" result="blur-10"/>
      <feFlood flood-opacity="0.161" result="color-5"/>
      <feComposite operator="out" in="SourceGraphic" in2="blur-10"/>
      <feComposite operator="in" in="color-5"/>
      <feComposite operator="in" in2="SourceGraphic"/>
    </filter>
    <filter id="填色_水滴_水_油-7" x="32.814" y="32.416" width="25.992" height="27.374" filterUnits="userSpaceOnUse">
      <feOffset dy="3" input="SourceAlpha"/>
      <feGaussianBlur stdDeviation="3" result="blur-11"/>
      <feFlood flood-opacity="0.161"/>
      <feComposite operator="in" in2="blur-11"/>
      <feComposite in="SourceGraphic"/>
    </filter>
    <filter id="填色_水滴_水_油-8" x="32.814" y="32.416" width="25.992" height="27.374" filterUnits="userSpaceOnUse">
      <feOffset dy="3" input="SourceAlpha"/>
      <feGaussianBlur stdDeviation="3" result="blur-12"/>
      <feFlood flood-opacity="0.302" result="color-6"/>
      <feComposite operator="out" in="SourceGraphic" in2="blur-12"/>
      <feComposite operator="in" in="color-6"/>
      <feComposite operator="in" in2="SourceGraphic"/>
    </filter>
    <filter id="填色_水滴_水_油-9" x="16.171" y="32.416" width="25.992" height="27.374" filterUnits="userSpaceOnUse">
      <feOffset dy="3" input="SourceAlpha"/>
      <feGaussianBlur stdDeviation="3" result="blur-13"/>
      <feFlood flood-opacity="0.161"/>
      <feComposite operator="in" in2="blur-13"/>
      <feComposite in="SourceGraphic"/>
    </filter>
    <filter id="填色_水滴_水_油-10" x="16.171" y="32.416" width="25.992" height="27.374" filterUnits="userSpaceOnUse">
      <feOffset dy="3" input="SourceAlpha"/>
      <feGaussianBlur stdDeviation="3" result="blur-14"/>
      <feFlood flood-opacity="0.302" result="color-7"/>
      <feComposite operator="out" in="SourceGraphic" in2="blur-14"/>
      <feComposite operator="in" in="color-7"/>
      <feComposite operator="in" in2="SourceGraphic"/>
    </filter>
  </defs>
  <g id="countyWeatherIcon10" transform="translate(9 6)">
    <rect id="矩形_182" data-name="矩形 182" class="cls-1" width="57.794" height="41.79" transform="translate(0.009 0)"/>
    <g id="组_197" data-name="组 197" transform="translate(0 0)">
      <g data-type="innerShadowGroup">
        <g class="cls-19" transform="matrix(1, 0, 0, 1, -9, -6)">
          <path id="填色_水滴_水_油-11" data-name="填色,水滴,水,油" class="cls-2" d="M6.876,5.061A3.438,3.438,0,1,1,0,5.061C0,3.184,1.439,1.783,2.454.48a1.248,1.248,0,0,1,1.967,0C5.438,1.783,6.876,3.184,6.876,5.061Z" transform="translate(50.47 30.29) rotate(4.99)"/>
        </g>
        <g class="cls-18" transform="matrix(1, 0, 0, 1, -9, -6)">
          <path id="填色_水滴_水_油-12" data-name="填色,水滴,水,油" class="cls-3" d="M6.876,5.061A3.438,3.438,0,1,1,0,5.061C0,3.184,1.439,1.783,2.454.48a1.248,1.248,0,0,1,1.967,0C5.438,1.783,6.876,3.184,6.876,5.061Z" transform="translate(50.47 30.29) rotate(4.99)"/>
        </g>
      </g>
      <g data-type="innerShadowGroup">
        <g class="cls-17" transform="matrix(1, 0, 0, 1, -9, -6)">
          <path id="填色_水滴_水_油-13" data-name="填色,水滴,水,油" class="cls-2" d="M6.876,5.061A3.438,3.438,0,1,1,0,5.061C0,3.184,1.439,1.783,2.454.48a1.248,1.248,0,0,1,1.967,0C5.438,1.783,6.876,3.184,6.876,5.061Z" transform="translate(19.14 30.29) rotate(8)"/>
        </g>
        <g class="cls-16" transform="matrix(1, 0, 0, 1, -9, -6)">
          <path id="填色_水滴_水_油-14" data-name="填色,水滴,水,油" class="cls-3" d="M6.876,5.061A3.438,3.438,0,1,1,0,5.061C0,3.184,1.439,1.783,2.454.48a1.248,1.248,0,0,1,1.967,0C5.438,1.783,6.876,3.184,6.876,5.061Z" transform="translate(19.14 30.29) rotate(8)"/>
        </g>
      </g>
      <g data-type="innerShadowGroup">
        <g class="cls-15" transform="matrix(1, 0, 0, 1, -9, -6)">
          <path id="填色_水滴_水_油-15" data-name="填色,水滴,水,油" class="cls-2" d="M6.876,5.061A3.438,3.438,0,1,1,0,5.061C0,3.184,1.439,1.783,2.454.48a1.248,1.248,0,0,1,1.967,0C5.438,1.783,6.876,3.184,6.876,5.061Z" transform="translate(35.01 29.98) rotate(8)"/>
        </g>
        <g class="cls-14" transform="matrix(1, 0, 0, 1, -9, -6)">
          <path id="填色_水滴_水_油-16" data-name="填色,水滴,水,油" class="cls-3" d="M6.876,5.061A3.438,3.438,0,1,1,0,5.061C0,3.184,1.439,1.783,2.454.48a1.248,1.248,0,0,1,1.967,0C5.438,1.783,6.876,3.184,6.876,5.061Z" transform="translate(35.01 29.98) rotate(8)"/>
        </g>
      </g>
      <g id="组_12" data-name="组 12" transform="translate(0 0)">
        <g data-type="innerShadowGroup">
          <g class="cls-13" transform="matrix(1, 0, 0, 1, -9, -6)">
            <path id="联合_7-3" data-name="联合 7" class="cls-4" d="M7.687,28.861H7.665a7.717,7.717,0,0,1-.874-15.381,7.719,7.719,0,0,1,7.68-6.913q.305,0,.606.024a10.038,10.038,0,0,1,19.4,2.336A10.033,10.033,0,1,1,36.4,28.857q-.075,0-.151,0Z" transform="translate(9.02 6)"/>
          </g>
          <g class="cls-12" transform="matrix(1, 0, 0, 1, -9, -6)">
            <path id="联合_7-4" data-name="联合 7" class="cls-3" d="M7.687,28.861H7.665a7.717,7.717,0,0,1-.874-15.381,7.719,7.719,0,0,1,7.68-6.913q.305,0,.606.024a10.038,10.038,0,0,1,19.4,2.336A10.033,10.033,0,1,1,36.4,28.857q-.075,0-.151,0Z" transform="translate(9.02 6)"/>
          </g>
        </g>
        <g data-type="innerShadowGroup">
          <g class="cls-11" transform="matrix(1, 0, 0, 1, -9, -6)">
            <path id="联合_6-3" data-name="联合 6" class="cls-5" d="M12.2,19.917a9.885,9.885,0,0,1-2.233.254A10.027,10.027,0,0,1,0,10.085,10.027,10.027,0,0,1,9.968,0q.161,0,.321,0,.137,0,.276,0H29.137a7.4,7.4,0,0,1,.929.058,7.668,7.668,0,0,1,8.612,7.7,7.713,7.713,0,0,1-7.667,7.758h0a9.947,9.947,0,0,1-18.805,4.4Z" transform="translate(66.79 36.37) rotate(180)"/>
          </g>
          <g class="cls-10" transform="matrix(1, 0, 0, 1, -9, -6)">
            <path id="联合_6-4" data-name="联合 6" class="cls-3" d="M12.2,19.917a9.885,9.885,0,0,1-2.233.254A10.027,10.027,0,0,1,0,10.085,10.027,10.027,0,0,1,9.968,0q.161,0,.321,0,.137,0,.276,0H29.137a7.4,7.4,0,0,1,.929.058,7.668,7.668,0,0,1,8.612,7.7,7.713,7.713,0,0,1-7.667,7.758h0a9.947,9.947,0,0,1-18.805,4.4Z" transform="translate(66.79 36.37) rotate(180)"/>
          </g>
        </g>
      </g>
      <g data-type="innerShadowGroup">
        <g class="cls-9" transform="matrix(1, 0, 0, 1, -9, -6)">
          <path id="填色_水滴_水_油-17" data-name="填色,水滴,水,油" class="cls-2" d="M6.876,5.061A3.438,3.438,0,1,1,0,5.061C0,3.184,1.439,1.783,2.454.48a1.248,1.248,0,0,1,1.967,0C5.438,1.783,6.876,3.184,6.876,5.061Z" transform="translate(43 38.42) rotate(8)"/>
        </g>
        <g class="cls-8" transform="matrix(1, 0, 0, 1, -9, -6)">
          <path id="填色_水滴_水_油-18" data-name="填色,水滴,水,油" class="cls-3" d="M6.876,5.061A3.438,3.438,0,1,1,0,5.061C0,3.184,1.439,1.783,2.454.48a1.248,1.248,0,0,1,1.967,0C5.438,1.783,6.876,3.184,6.876,5.061Z" transform="translate(43 38.42) rotate(8)"/>
        </g>
      </g>
      <g data-type="innerShadowGroup">
        <g class="cls-7" transform="matrix(1, 0, 0, 1, -9, -6)">
          <path id="填色_水滴_水_油-19" data-name="填色,水滴,水,油" class="cls-2" d="M6.876,5.061A3.438,3.438,0,1,1,0,5.061C0,3.184,1.439,1.783,2.454.48a1.248,1.248,0,0,1,1.967,0C5.438,1.783,6.876,3.184,6.876,5.061Z" transform="translate(26.35 38.42) rotate(8)"/>
        </g>
        <g class="cls-6" transform="matrix(1, 0, 0, 1, -9, -6)">
          <path id="填色_水滴_水_油-20" data-name="填色,水滴,水,油" class="cls-3" d="M6.876,5.061A3.438,3.438,0,1,1,0,5.061C0,3.184,1.439,1.783,2.454.48a1.248,1.248,0,0,1,1.967,0C5.438,1.783,6.876,3.184,6.876,5.061Z" transform="translate(26.35 38.42) rotate(8)"/>
        </g>
      </g>
    </g>
  </g>
</svg>
