<svg xmlns="http://www.w3.org/2000/svg" width="62" height="50" viewBox="0 0 62 50">
  <defs>
    <style>
      .cls-1 {
        fill: #ffd939;
      }
    </style>
  </defs>
  <path id="sunset" class="cls-1" d="M31,121.983a1.919,1.919,0,0,0,1.323-.625l7.564-7a1.717,1.717,0,0,0,.105-2.469,1.564,1.564,0,0,0-1.18-.447,1.982,1.982,0,0,0-1.323.542l-3.017,3.083-1.777,2.083.289-3.625v-9a2.071,2.071,0,0,0-1.943-2.125,2.05,2.05,0,0,0-1.984,2.125v9l.289,3.625-1.571-1.833-3.265-3.292a1.881,1.881,0,0,0-1.281-.542,1.58,1.58,0,0,0-1.653,1.625,1.7,1.7,0,0,0,.579,1.292l7.564,7a1.871,1.871,0,0,0,1.281.583Zm12.483,6.542a2.077,2.077,0,0,0,2.935-.125l4.216-4.167a1.946,1.946,0,0,0,.083-2.875,2.026,2.026,0,0,0-2.893.083l-4.216,4.167A2.031,2.031,0,0,0,43.483,128.525Zm-27.9-.083a2.074,2.074,0,0,0,2.935.083,2.036,2.036,0,0,0-.165-2.917l-4.216-4.167a1.971,1.971,0,1,0-2.769,2.792l4.216,4.208ZM2.108,152.4H59.892a1.944,1.944,0,1,0,0-3.875H41.705a12.683,12.683,0,0,0,2.521-7.625,13.227,13.227,0,0,0-26.453,0,12.591,12.591,0,0,0,2.521,7.625H2.108a1.944,1.944,0,1,0,0,3.875Zm19.551-11.458a9.342,9.342,0,0,1,18.683,0,9.167,9.167,0,0,1-4.133,7.625H25.792a9.279,9.279,0,0,1-4.133-7.625ZM5.249,142.275H11.2a1.971,1.971,0,1,0,0-3.917H5.249A2.027,2.027,0,0,0,3.1,140.317a2,2,0,0,0,2.149,1.958Zm45.549,0h5.952a1.967,1.967,0,1,0,0-3.917H50.8a2.064,2.064,0,0,0-2.191,1.958A2.09,2.09,0,0,0,50.8,142.275Z" transform="translate(0 -102.4)"/>
</svg>
