<svg xmlns="http://www.w3.org/2000/svg" xmlns:xlink="http://www.w3.org/1999/xlink" width="177.948" height="160" viewBox="0 0 177.948 160">
  <defs>
    <style>
      .cls-1, .cls-3 {
        fill: #fff;
      }

      .cls-1 {
        opacity: 0;
      }

      .cls-2 {
        fill: #ffe83e;
      }

      .cls-4 {
        fill: #ffd939;
      }

      .cls-5 {
        fill: #ffc23b;
      }

      .cls-6 {
        filter: url(#联合_4-2);
      }

      .cls-7 {
        filter: url(#联合_4);
      }

      .cls-8 {
        filter: url(#联合_5-2);
      }

      .cls-9 {
        filter: url(#联合_5);
      }

      .cls-10 {
        filter: url(#减去_1);
      }

      .cls-11 {
        filter: url(#椭圆_3);
      }

      .cls-12 {
        filter: url(#多边形_1-2);
      }

      .cls-13 {
        filter: url(#多边形_1);
      }
    </style>
    <filter id="多边形_1" x="23.81" y="22.868" width="120.265" height="120.265" filterUnits="userSpaceOnUse">
      <feOffset dy="3" input="SourceAlpha"/>
      <feGaussianBlur stdDeviation="3" result="blur"/>
      <feFlood flood-opacity="0.161"/>
      <feComposite operator="in" in2="blur"/>
      <feComposite in="SourceGraphic"/>
    </filter>
    <filter id="多边形_1-2" x="23.81" y="22.868" width="120.265" height="120.265" filterUnits="userSpaceOnUse">
      <feOffset dy="3" input="SourceAlpha"/>
      <feGaussianBlur stdDeviation="3" result="blur-2"/>
      <feFlood flood-opacity="0.161" result="color"/>
      <feComposite operator="out" in="SourceGraphic" in2="blur-2"/>
      <feComposite operator="in" in="color"/>
      <feComposite operator="in" in2="SourceGraphic"/>
    </filter>
    <filter id="椭圆_3">
      <feOffset dy="3" input="SourceAlpha"/>
      <feGaussianBlur stdDeviation="3" result="blur-3"/>
      <feFlood flood-opacity="0.161" result="color-2"/>
      <feComposite operator="out" in="SourceGraphic" in2="blur-3"/>
      <feComposite operator="in" in="color-2"/>
      <feComposite operator="in" in2="SourceGraphic"/>
    </filter>
    <filter id="减去_1">
      <feOffset dy="3" input="SourceAlpha"/>
      <feGaussianBlur stdDeviation="3" result="blur-4"/>
      <feFlood flood-opacity="0.161" result="color-3"/>
      <feComposite operator="out" in="SourceGraphic" in2="blur-4"/>
      <feComposite operator="in" in="color-3"/>
      <feComposite operator="in" in2="SourceGraphic"/>
    </filter>
    <filter id="联合_5" x="0" y="81.999" width="82.911" height="60.002" filterUnits="userSpaceOnUse">
      <feOffset dy="3" input="SourceAlpha"/>
      <feGaussianBlur stdDeviation="3" result="blur-5"/>
      <feFlood flood-opacity="0.161"/>
      <feComposite operator="in" in2="blur-5"/>
      <feComposite in="SourceGraphic"/>
    </filter>
    <filter id="联合_5-2" x="0" y="81.999" width="82.911" height="60.002" filterUnits="userSpaceOnUse">
      <feOffset dy="3" input="SourceAlpha"/>
      <feGaussianBlur stdDeviation="1" result="blur-6"/>
      <feFlood flood-opacity="0.161" result="color-4"/>
      <feComposite operator="out" in="SourceGraphic" in2="blur-6"/>
      <feComposite operator="in" in="color-4"/>
      <feComposite operator="in" in2="SourceGraphic"/>
    </filter>
    <filter id="联合_4" x="94.969" y="55.991" width="82.979" height="60.009" filterUnits="userSpaceOnUse">
      <feOffset dy="3" input="SourceAlpha"/>
      <feGaussianBlur stdDeviation="3" result="blur-7"/>
      <feFlood flood-opacity="0.161"/>
      <feComposite operator="in" in2="blur-7"/>
      <feComposite in="SourceGraphic"/>
    </filter>
    <filter id="联合_4-2" x="94.969" y="55.991" width="82.979" height="60.009" filterUnits="userSpaceOnUse">
      <feOffset dy="3" input="SourceAlpha"/>
      <feGaussianBlur stdDeviation="1" result="blur-8"/>
      <feFlood flood-opacity="0.161" result="color-5"/>
      <feComposite operator="out" in="SourceGraphic" in2="blur-8"/>
      <feComposite operator="in" in="color-5"/>
      <feComposite operator="in" in2="SourceGraphic"/>
    </filter>
  </defs>
  <g id="dateListIcon03" transform="translate(9222.942 -1769)">
    <rect id="矩形_180" data-name="矩形 180" class="cls-1" width="160" height="160" transform="translate(-9214 1769)"/>
    <g id="组_194" data-name="组 194" transform="translate(-9746 915)">
      <g id="组_15" data-name="组 15" transform="translate(549.356 876)">
        <g data-type="innerShadowGroup">
          <g class="cls-13" transform="matrix(1, 0, 0, 1, -26.3, -22)">
            <path id="多边形_1-3" data-name="多边形 1" class="cls-2" d="M70.976,8.536A8,8,0,0,1,83.8,13.848l1.3,10.133A8,8,0,0,0,92.018,30.9l10.133,1.3a8,8,0,0,1,5.313,12.826l-6.246,8.085a8,8,0,0,0,0,9.782l6.246,8.085A8,8,0,0,1,102.152,83.8L92.018,85.1A8,8,0,0,0,85.1,92.018l-1.3,10.133a8,8,0,0,1-12.826,5.313l-8.085-6.246a8,8,0,0,0-9.782,0l-8.085,6.246A8,8,0,0,1,32.2,102.152L30.9,92.018A8,8,0,0,0,23.982,85.1L13.848,83.8A8,8,0,0,1,8.536,70.976l6.246-8.085a8,8,0,0,0,0-9.782L8.536,45.024A8,8,0,0,1,13.848,32.2l10.133-1.3A8,8,0,0,0,30.9,23.982l1.3-10.133A8,8,0,0,1,45.024,8.536l8.085,6.246a8,8,0,0,0,9.782,0Z" transform="translate(25.94 22)"/>
          </g>
          <g class="cls-12" transform="matrix(1, 0, 0, 1, -26.3, -22)">
            <path id="多边形_1-4" data-name="多边形 1" class="cls-3" d="M70.976,8.536A8,8,0,0,1,83.8,13.848l1.3,10.133A8,8,0,0,0,92.018,30.9l10.133,1.3a8,8,0,0,1,5.313,12.826l-6.246,8.085a8,8,0,0,0,0,9.782l6.246,8.085A8,8,0,0,1,102.152,83.8L92.018,85.1A8,8,0,0,0,85.1,92.018l-1.3,10.133a8,8,0,0,1-12.826,5.313l-8.085-6.246a8,8,0,0,0-9.782,0l-8.085,6.246A8,8,0,0,1,32.2,102.152L30.9,92.018A8,8,0,0,0,23.982,85.1L13.848,83.8A8,8,0,0,1,8.536,70.976l6.246-8.085a8,8,0,0,0,0-9.782L8.536,45.024A8,8,0,0,1,13.848,32.2l10.133-1.3A8,8,0,0,0,30.9,23.982l1.3-10.133A8,8,0,0,1,45.024,8.536l8.085,6.246a8,8,0,0,0,9.782,0Z" transform="translate(25.94 22)"/>
          </g>
        </g>
        <g id="组_2" data-name="组 2" transform="translate(22.459 22.28)">
          <g data-type="innerShadowGroup">
            <circle id="椭圆_3-2" data-name="椭圆 3" class="cls-4" cx="35.344" cy="35.344" r="35.344" transform="translate(0 0)"/>
            <g class="cls-11" transform="matrix(1, 0, 0, 1, -48.76, -44.28)">
              <circle id="椭圆_3-3" data-name="椭圆 3" class="cls-3" cx="35.344" cy="35.344" r="35.344" transform="translate(48.76 44.28)"/>
            </g>
          </g>
          <g data-type="innerShadowGroup">
            <path id="减去_1-2" data-name="减去 1" class="cls-5" d="M35.331,70.661a35.61,35.61,0,0,1-7.127-.719A35.328,35.328,0,0,1,.718,42.451a35.675,35.675,0,0,1,0-14.241A35.32,35.32,0,0,1,28.21.718,35.672,35.672,0,0,1,42.61.75a35.34,35.34,0,0,0,0,69.161,35.583,35.583,0,0,1-7.279.75Z" transform="translate(0.092 0.05)"/>
            <g class="cls-10" transform="matrix(1, 0, 0, 1, -48.76, -44.28)">
              <path id="减去_1-3" data-name="减去 1" class="cls-3" d="M35.331,70.661a35.61,35.61,0,0,1-7.127-.719A35.328,35.328,0,0,1,.718,42.451a35.675,35.675,0,0,1,0-14.241A35.32,35.32,0,0,1,28.21.718,35.672,35.672,0,0,1,42.61.75a35.34,35.34,0,0,0,0,69.161,35.583,35.583,0,0,1-7.279.75Z" transform="translate(48.85 44.33)"/>
            </g>
          </g>
        </g>
      </g>
      <g data-type="innerShadowGroup">
        <g class="cls-9" transform="matrix(1, 0, 0, 1, 523.06, 854)">
          <path id="联合_5-3" data-name="联合 5" class="cls-3" d="M50.6,41.913A12.269,12.269,0,0,1,49.135,42H17.583q-.192,0-.383-.006c-.149,0-.3.006-.45.006A16.714,16.714,0,1,1,20.5,8.993a16.761,16.761,0,0,1,31.606,7.293h.005a12.858,12.858,0,1,1,0,25.715,13.047,13.047,0,0,1-1.509-.088Z" transform="translate(8.94 88)"/>
        </g>
        <g class="cls-8" transform="matrix(1, 0, 0, 1, 523.06, 854)">
          <path id="联合_5-4" data-name="联合 5" class="cls-3" d="M50.6,41.913A12.269,12.269,0,0,1,49.135,42H17.583q-.192,0-.383-.006c-.149,0-.3.006-.45.006A16.714,16.714,0,1,1,20.5,8.993a16.761,16.761,0,0,1,31.606,7.293h.005a12.858,12.858,0,1,1,0,25.715,13.047,13.047,0,0,1-1.509-.088Z" transform="translate(8.94 88)"/>
        </g>
      </g>
      <g data-type="innerShadowGroup">
        <g class="cls-7" transform="matrix(1, 0, 0, 1, 523.06, 854)">
          <path id="联合_4-3" data-name="联合 4" class="cls-3" d="M20.5,33.008A16.721,16.721,0,1,1,16.751,0q.225,0,.45.006Q17.391,0,17.583,0H49.135A12.261,12.261,0,0,1,50.6.088,13.055,13.055,0,0,1,52.115,0a12.858,12.858,0,1,1,0,25.715H52.11A16.761,16.761,0,0,1,20.5,33.008Z" transform="translate(168.94 104) rotate(180)"/>
        </g>
        <g class="cls-6" transform="matrix(1, 0, 0, 1, 523.06, 854)">
          <path id="联合_4-4" data-name="联合 4" class="cls-3" d="M20.5,33.008A16.721,16.721,0,1,1,16.751,0q.225,0,.45.006Q17.391,0,17.583,0H49.135A12.261,12.261,0,0,1,50.6.088,13.055,13.055,0,0,1,52.115,0a12.858,12.858,0,1,1,0,25.715H52.11A16.761,16.761,0,0,1,20.5,33.008Z" transform="translate(168.94 104) rotate(180)"/>
        </g>
      </g>
    </g>
  </g>
</svg>
