<svg xmlns="http://www.w3.org/2000/svg" width="24" height="24" viewBox="0 0 24 24">
  <defs>
    <style>
      .cls-1 {
        fill: #6e6e6e;
      }
    </style>
  </defs>
  <path id="Info" class="cls-1" d="M76.039,69.436c-.833,0-2.156.973-2.156,1.759l.651,6.483a1.511,1.511,0,0,0,3.016,0l.579-6.483c-.005-.783-1.256-1.759-2.09-1.759ZM85.533,64.5H66.47A2.493,2.493,0,0,0,64,67.012V85.988A2.493,2.493,0,0,0,66.47,88.5H85.53A2.493,2.493,0,0,0,88,85.988V67.012A2.487,2.487,0,0,0,85.533,64.5Zm-.364,19.975a1.2,1.2,0,0,1-1.189,1.217H68a1.2,1.2,0,0,1-1.189-1.217V68.522A1.2,1.2,0,0,1,68,67.3H83.979a1.2,1.2,0,0,1,1.189,1.217V84.475Zm-9.13-4.164a1.466,1.466,0,0,0-1.508,1.418v.4a1.511,1.511,0,0,0,3.016,0v-.4A1.466,1.466,0,0,0,76.039,80.311Z" transform="translate(-64 -64.5)"/>
</svg>
