<svg id="return" xmlns="http://www.w3.org/2000/svg" width="36" height="36" viewBox="0 0 36 36">
  <defs>
    <style>
      .cls-1 {
        fill: #c3e0fd;
      }

      .cls-2 {
        fill: #fff;
      }
    </style>
  </defs>
  <path id="路径_187" data-name="路径 187" class="cls-1" d="M6,0H30a6,6,0,0,1,6,6V30a6,6,0,0,1-6,6H6a6,6,0,0,1-6-6V6A6,6,0,0,1,6,0Z" transform="translate(0 0)"/>
  <path id="返回" class="cls-2" d="M156.3,145.616a14.826,14.826,0,0,0-6.974-4.867,16.969,16.969,0,0,0-3.993-.762v-7.268a1.218,1.218,0,0,0-.449-1.078.7.7,0,0,0-.95.129l-13.2,12.205a1.388,1.388,0,0,0-.347.918,1.183,1.183,0,0,0,.4.92l13.254,12.294a.7.7,0,0,0,.9.129,1.289,1.289,0,0,0,.445-1.076V150.3c4.985.182,8.323,1.958,10.662,5.114a13.254,13.254,0,0,1,2.4,5.125,1.036,1.036,0,0,0,.95.92h.1a1.079,1.079,0,0,0,.85-1.126c.053-6.268-1.294-11.2-4.035-14.723Z" transform="translate(-127.366 -128.484)"/>
</svg>
