<svg xmlns="http://www.w3.org/2000/svg" width="24" height="24" viewBox="0 0 24 24">
  <defs>
    <style>
      .cls-1 {
        fill: #fff;
      }
    </style>
  </defs>
  <g id="signIn" transform="translate(-0.1)">
    <path id="路径_97" data-name="路径 97" class="cls-1" d="M10.755,346.92a.866.866,0,0,0,1.225,1.225l3.268-3.268a.873.873,0,0,0,0-1.232l-3.268-3.265a.866.866,0,0,0-1.225,1.225l1.788,1.788-11.577,0a.867.867,0,0,0,0,1.735l11.577,0-1.788,1.788Z" transform="translate(0 -332.26)"/>
    <path id="路径_98" data-name="路径 98" class="cls-1" d="M117.68,7.332A11.943,11.943,0,0,0,106.654,0a11.83,11.83,0,0,0-5.4,1.289,12.044,12.044,0,0,0-4.121,3.45.841.841,0,1,0,1.337,1.022A10.375,10.375,0,0,1,102.012,2.8a10.253,10.253,0,0,1,11.914,1.91,10.326,10.326,0,0,1-3.268,16.8,10.281,10.281,0,0,1-8.651-.3,10.4,10.4,0,0,1-3.546-2.965.841.841,0,1,0-1.337,1.022,12.077,12.077,0,0,0,4.126,3.45,11.935,11.935,0,0,0,13.866-2.224A12.028,12.028,0,0,0,117.68,7.332Z" transform="translate(-94.522)"/>
  </g>
</svg>
