<svg xmlns="http://www.w3.org/2000/svg" xmlns:xlink="http://www.w3.org/1999/xlink" width="189" height="180" viewBox="0 0 189 180">
  <defs>
    <style>
      .cls-1, .cls-4 {
        fill: #fff;
      }

      .cls-1, .cls-2 {
        opacity: 0;
      }

      .cls-2 {
        fill: #4092fb;
      }

      .cls-3 {
        fill: #c3e0fd;
      }

      .cls-5 {
        filter: url(#填色_水滴_水_油-5);
      }

      .cls-6 {
        filter: url(#填色_水滴_水_油-4);
      }

      .cls-7 {
        filter: url(#联合_6);
      }

      .cls-8 {
        filter: url(#联合_7-2);
      }

      .cls-9 {
        filter: url(#联合_7);
      }

      .cls-10 {
        filter: url(#填色_水滴_水_油-3);
      }

      .cls-11 {
        filter: url(#填色_水滴_水_油-2);
      }

      .cls-12 {
        filter: url(#填色_水滴_水_油);
      }
    </style>
    <filter id="填色_水滴_水_油">
      <feOffset dy="3" input="SourceAlpha"/>
      <feGaussianBlur stdDeviation="3" result="blur"/>
      <feFlood flood-opacity="0.302" result="color"/>
      <feComposite operator="out" in="SourceGraphic" in2="blur"/>
      <feComposite operator="in" in="color"/>
      <feComposite operator="in" in2="SourceGraphic"/>
    </filter>
    <filter id="填色_水滴_水_油-2">
      <feOffset dy="3" input="SourceAlpha"/>
      <feGaussianBlur stdDeviation="3" result="blur-2"/>
      <feFlood flood-opacity="0.302" result="color-2"/>
      <feComposite operator="out" in="SourceGraphic" in2="blur-2"/>
      <feComposite operator="in" in="color-2"/>
      <feComposite operator="in" in2="SourceGraphic"/>
    </filter>
    <filter id="填色_水滴_水_油-3">
      <feOffset dy="3" input="SourceAlpha"/>
      <feGaussianBlur stdDeviation="3" result="blur-3"/>
      <feFlood flood-opacity="0.302" result="color-3"/>
      <feComposite operator="out" in="SourceGraphic" in2="blur-3"/>
      <feComposite operator="in" in="color-3"/>
      <feComposite operator="in" in2="SourceGraphic"/>
    </filter>
    <filter id="联合_7" x="0" y="18.875" width="162.768" height="107.691" filterUnits="userSpaceOnUse">
      <feOffset dy="3" input="SourceAlpha"/>
      <feGaussianBlur stdDeviation="3" result="blur-4"/>
      <feFlood flood-opacity="0.161"/>
      <feComposite operator="in" in2="blur-4"/>
      <feComposite in="SourceGraphic"/>
    </filter>
    <filter id="联合_7-2" x="0" y="18.875" width="162.768" height="107.691" filterUnits="userSpaceOnUse">
      <feOffset dy="3" input="SourceAlpha"/>
      <feGaussianBlur stdDeviation="1" result="blur-5"/>
      <feFlood flood-opacity="0.161" result="color-4"/>
      <feComposite operator="out" in="SourceGraphic" in2="blur-5"/>
      <feComposite operator="in" in="color-4"/>
      <feComposite operator="in" in2="SourceGraphic"/>
    </filter>
    <filter id="联合_6">
      <feOffset dy="3" input="SourceAlpha"/>
      <feGaussianBlur stdDeviation="1" result="blur-6"/>
      <feFlood flood-opacity="0.161" result="color-5"/>
      <feComposite operator="out" in="SourceGraphic" in2="blur-6"/>
      <feComposite operator="in" in="color-5"/>
      <feComposite operator="in" in2="SourceGraphic"/>
    </filter>
    <filter id="填色_水滴_水_油-4">
      <feOffset dy="3" input="SourceAlpha"/>
      <feGaussianBlur stdDeviation="3" result="blur-7"/>
      <feFlood flood-opacity="0.302" result="color-6"/>
      <feComposite operator="out" in="SourceGraphic" in2="blur-7"/>
      <feComposite operator="in" in="color-6"/>
      <feComposite operator="in" in2="SourceGraphic"/>
    </filter>
    <filter id="填色_水滴_水_油-5">
      <feOffset dy="3" input="SourceAlpha"/>
      <feGaussianBlur stdDeviation="3" result="blur-8"/>
      <feFlood flood-opacity="0.302" result="color-7"/>
      <feComposite operator="out" in="SourceGraphic" in2="blur-8"/>
      <feComposite operator="in" in="color-7"/>
      <feComposite operator="in" in2="SourceGraphic"/>
    </filter>
  </defs>
  <g id="weatherDayIcon04" transform="translate(9)">
    <rect id="矩形_182" data-name="矩形 182" class="cls-1" width="179.758" height="180" transform="translate(0.242)"/>
    <g id="组_197" data-name="组 197" transform="translate(0 24.875)">
      <g data-type="innerShadowGroup">
        <path id="填色_水滴_水_油-6" data-name="填色,水滴,水,油" class="cls-2" d="M21.568,15.88A10.784,10.784,0,0,1,0,15.88C0,9.991,4.512,5.6,7.7,1.5a3.915,3.915,0,0,1,6.171,0C17.056,5.6,21.568,9.991,21.568,15.88Z" transform="translate(129.092 75.561) rotate(4.992)"/>
        <g class="cls-12" transform="matrix(1, 0, 0, 1, -9, -24.87)">
          <path id="填色_水滴_水_油-7" data-name="填色,水滴,水,油" class="cls-1" d="M21.568,15.88A10.784,10.784,0,0,1,0,15.88C0,9.991,4.512,5.6,7.7,1.5a3.915,3.915,0,0,1,6.171,0C17.056,5.6,21.568,9.991,21.568,15.88Z" transform="translate(138.09 100.44) rotate(4.99)"/>
        </g>
      </g>
      <g data-type="innerShadowGroup">
        <path id="填色_水滴_水_油-8" data-name="填色,水滴,水,油" class="cls-2" d="M21.568,15.88A10.784,10.784,0,0,1,0,15.88C0,9.991,4.512,5.6,7.7,1.5a3.915,3.915,0,0,1,6.171,0C17.056,5.6,21.568,9.991,21.568,15.88Z" transform="translate(31.582 75.553) rotate(8)"/>
        <g class="cls-11" transform="matrix(1, 0, 0, 1, -9, -24.87)">
          <path id="填色_水滴_水_油-9" data-name="填色,水滴,水,油" class="cls-1" d="M21.568,15.88A10.784,10.784,0,0,1,0,15.88C0,9.991,4.512,5.6,7.7,1.5a3.915,3.915,0,0,1,6.171,0C17.056,5.6,21.568,9.991,21.568,15.88Z" transform="translate(40.58 100.43) rotate(8)"/>
        </g>
      </g>
      <g data-type="innerShadowGroup">
        <path id="填色_水滴_水_油-10" data-name="填色,水滴,水,油" class="cls-2" d="M21.568,15.88A10.784,10.784,0,0,1,0,15.88C0,9.991,4.512,5.6,7.7,1.5a3.915,3.915,0,0,1,6.171,0C17.056,5.6,21.568,9.991,21.568,15.88Z" transform="translate(80.963 74.599) rotate(8)"/>
        <g class="cls-10" transform="matrix(1, 0, 0, 1, -9, -24.87)">
          <path id="填色_水滴_水_油-11" data-name="填色,水滴,水,油" class="cls-1" d="M21.568,15.88A10.784,10.784,0,0,1,0,15.88C0,9.991,4.512,5.6,7.7,1.5a3.915,3.915,0,0,1,6.171,0C17.056,5.6,21.568,9.991,21.568,15.88Z" transform="translate(89.96 99.47) rotate(8)"/>
        </g>
      </g>
      <g id="组_12" data-name="组 12" transform="translate(0)">
        <g data-type="innerShadowGroup">
          <g class="cls-9" transform="matrix(1, 0, 0, 1, -9, -24.87)">
            <path id="联合_7-3" data-name="联合 7" class="cls-3" d="M21.124,89.684a3.964,3.964,0,0,1-1.981-.527,23.948,23.948,0,0,1,2.192-47.266A24.13,24.13,0,0,1,45.422,20.406q.958,0,1.9.073a31.549,31.549,0,0,1,60.867,7.261,31.185,31.185,0,0,1,11.609,61.273,4.756,4.756,0,0,1-2.441.669Z" transform="translate(9 24.88)"/>
          </g>
          <g class="cls-8" transform="matrix(1, 0, 0, 1, -9, -24.87)">
            <path id="联合_7-4" data-name="联合 7" class="cls-4" d="M21.124,89.684a3.964,3.964,0,0,1-1.981-.527,23.948,23.948,0,0,1,2.192-47.266A24.13,24.13,0,0,1,45.422,20.406q.958,0,1.9.073a31.549,31.549,0,0,1,60.867,7.261,31.185,31.185,0,0,1,11.609,61.273,4.756,4.756,0,0,1-2.441.669Z" transform="translate(9 24.88)"/>
          </g>
        </g>
        <g data-type="innerShadowGroup">
          <path id="联合_6-2" data-name="联合 6" class="cls-4" d="M38.635,62.1A31.464,31.464,0,1,1,31.564,0c.277,0,.553,0,.83.01q.35-.01.7-.01H92.619a23.091,23.091,0,0,1,2.745.164A24.619,24.619,0,0,1,98.2,0a24.189,24.189,0,1,1,0,48.378h-.01A31.592,31.592,0,0,1,38.635,62.1Z" transform="translate(180 92.699) rotate(180)"/>
          <g class="cls-7" transform="matrix(1, 0, 0, 1, -9, -24.87)">
            <path id="联合_6-3" data-name="联合 6" class="cls-4" d="M38.635,62.1A31.464,31.464,0,1,1,31.564,0c.277,0,.553,0,.83.01q.35-.01.7-.01H92.619a23.091,23.091,0,0,1,2.745.164A24.619,24.619,0,0,1,98.2,0a24.189,24.189,0,1,1,0,48.378h-.01A31.592,31.592,0,0,1,38.635,62.1Z" transform="translate(189 117.57) rotate(180)"/>
          </g>
        </g>
      </g>
      <g data-type="innerShadowGroup">
        <path id="填色_水滴_水_油-12" data-name="填色,水滴,水,油" class="cls-2" d="M21.568,15.88A10.784,10.784,0,0,1,0,15.88C0,9.991,4.512,5.6,7.7,1.5a3.915,3.915,0,0,1,6.171,0C17.056,5.6,21.568,9.991,21.568,15.88Z" transform="translate(105.84 100.837) rotate(8)"/>
        <g class="cls-6" transform="matrix(1, 0, 0, 1, -9, -24.87)">
          <path id="填色_水滴_水_油-13" data-name="填色,水滴,水,油" class="cls-1" d="M21.568,15.88A10.784,10.784,0,0,1,0,15.88C0,9.991,4.512,5.6,7.7,1.5a3.915,3.915,0,0,1,6.171,0C17.056,5.6,21.568,9.991,21.568,15.88Z" transform="translate(114.84 125.71) rotate(8)"/>
        </g>
      </g>
      <g data-type="innerShadowGroup">
        <path id="填色_水滴_水_油-14" data-name="填色,水滴,水,油" class="cls-2" d="M21.568,15.88A10.784,10.784,0,0,1,0,15.88C0,9.991,4.512,5.6,7.7,1.5a3.915,3.915,0,0,1,6.171,0C17.056,5.6,21.568,9.991,21.568,15.88Z" transform="translate(54.028 100.837) rotate(8)"/>
        <g class="cls-5" transform="matrix(1, 0, 0, 1, -9, -24.87)">
          <path id="填色_水滴_水_油-15" data-name="填色,水滴,水,油" class="cls-1" d="M21.568,15.88A10.784,10.784,0,0,1,0,15.88C0,9.991,4.512,5.6,7.7,1.5a3.915,3.915,0,0,1,6.171,0C17.056,5.6,21.568,9.991,21.568,15.88Z" transform="translate(63.03 125.71) rotate(8)"/>
        </g>
      </g>
    </g>
  </g>
</svg>
