<svg id="weatherDayIcon12" xmlns="http://www.w3.org/2000/svg" xmlns:xlink="http://www.w3.org/1999/xlink" width="181" height="181" viewBox="0 0 181 181">
  <defs>
    <style>
      .cls-1, .cls-3 {
        fill: #fff;
      }

      .cls-1 {
        opacity: 0;
      }

      .cls-2 {
        fill: #ffd939;
      }

      .cls-4 {
        filter: url(#联合_8);
      }

      .cls-5 {
        filter: url(#联合_9);
      }

      .cls-6 {
        filter: url(#月亮);
      }
    </style>
    <filter id="月亮">
      <feOffset dy="11" input="SourceAlpha"/>
      <feGaussianBlur stdDeviation="4" result="blur"/>
      <feFlood flood-opacity="0.161" result="color"/>
      <feComposite operator="out" in="SourceGraphic" in2="blur"/>
      <feComposite operator="in" in="color"/>
      <feComposite operator="in" in2="SourceGraphic"/>
    </filter>
    <filter id="联合_9">
      <feOffset dy="3" input="SourceAlpha"/>
      <feGaussianBlur stdDeviation="1" result="blur-2"/>
      <feFlood flood-opacity="0.161" result="color-2"/>
      <feComposite operator="out" in="SourceGraphic" in2="blur-2"/>
      <feComposite operator="in" in="color-2"/>
      <feComposite operator="in" in2="SourceGraphic"/>
    </filter>
    <filter id="联合_8">
      <feOffset dy="3" input="SourceAlpha"/>
      <feGaussianBlur stdDeviation="1" result="blur-3"/>
      <feFlood flood-opacity="0.161" result="color-3"/>
      <feComposite operator="out" in="SourceGraphic" in2="blur-3"/>
      <feComposite operator="in" in="color-3"/>
      <feComposite operator="in" in2="SourceGraphic"/>
    </filter>
  </defs>
  <rect id="矩形_183" data-name="矩形 183" class="cls-1" width="180.791" height="181" transform="translate(0.209)"/>
  <g id="组_200" data-name="组 200" transform="translate(0 29.403)">
    <g data-type="innerShadowGroup">
      <path id="月亮-2" data-name="月亮" class="cls-2" d="M191.9,250.374A61.693,61.693,0,0,1,130.5,194.1a5.743,5.743,0,0,1,10.121-3.454c.033.049.079.017.079-.115a37.2,37.2,0,0,0,27.207,11.792,37.713,37.713,0,0,0,37.686-37.752,37.311,37.311,0,0,0-11.89-27.355c.017-.017.079-.017.049-.049a5.81,5.81,0,0,1,3.652-10.072,61.765,61.765,0,0,1-5.5,123.274Z" transform="translate(-101.26 -127.098)"/>
      <g class="cls-6" transform="matrix(1, 0, 0, 1, 0, -29.4)">
        <path id="月亮-3" data-name="月亮" class="cls-3" d="M191.9,250.374A61.693,61.693,0,0,1,130.5,194.1a5.743,5.743,0,0,1,10.121-3.454c.033.049.079.017.079-.115a37.2,37.2,0,0,0,27.207,11.792,37.713,37.713,0,0,0,37.686-37.752,37.311,37.311,0,0,0-11.89-27.355c.017-.017.079-.017.049-.049a5.81,5.81,0,0,1,3.652-10.072,61.765,61.765,0,0,1-5.5,123.274Z" transform="translate(-101.26 -97.7)"/>
      </g>
    </g>
    <g data-type="innerShadowGroup">
      <path id="联合_9-2" data-name="联合 9" class="cls-3" d="M57.247,47.312a13.85,13.85,0,0,1-1.647.1H19.884q-.212,0-.421-.006-.248.006-.5.006a18.867,18.867,0,1,1,4.243-37.26,18.955,18.955,0,0,1,35.734,8.232h.006a14.513,14.513,0,0,1,0,29.027,14.777,14.777,0,0,1-1.7-.1Z" transform="translate(-0.134 74.903)"/>
      <g class="cls-5" transform="matrix(1, 0, 0, 1, 0, -29.4)">
        <path id="联合_9-3" data-name="联合 9" class="cls-3" d="M57.247,47.312a13.85,13.85,0,0,1-1.647.1H19.884q-.212,0-.421-.006-.248.006-.5.006a18.867,18.867,0,1,1,4.243-37.26,18.955,18.955,0,0,1,35.734,8.232h.006a14.513,14.513,0,0,1,0,29.027,14.777,14.777,0,0,1-1.7-.1Z" transform="translate(-0.13 104.31)"/>
      </g>
    </g>
    <g data-type="innerShadowGroup">
      <path id="联合_8-2" data-name="联合 8" class="cls-3" d="M23.181,37.26A18.878,18.878,0,1,1,18.938,0q.25,0,.5.006Q19.646,0,19.858,0H55.575a13.857,13.857,0,0,1,1.649.1,14.768,14.768,0,0,1,1.7-.1,14.513,14.513,0,0,1,0,29.027h-.006A18.955,18.955,0,0,1,23.181,37.26Z" transform="translate(180.638 93.076) rotate(180)"/>
      <g class="cls-4" transform="matrix(1, 0, 0, 1, 0, -29.4)">
        <path id="联合_8-3" data-name="联合 8" class="cls-3" d="M23.181,37.26A18.878,18.878,0,1,1,18.938,0q.25,0,.5.006Q19.646,0,19.858,0H55.575a13.857,13.857,0,0,1,1.649.1,14.768,14.768,0,0,1,1.7-.1,14.513,14.513,0,0,1,0,29.027h-.006A18.955,18.955,0,0,1,23.181,37.26Z" transform="translate(180.64 122.48) rotate(180)"/>
      </g>
    </g>
  </g>
</svg>
