<svg xmlns="http://www.w3.org/2000/svg" xmlns:xlink="http://www.w3.org/1999/xlink" width="111.226" height="85.409" viewBox="0 0 111.226 85.409">
  <defs>
    <style>
      .cls-1, .cls-3 {
        fill: #fff;
      }

      .cls-1 {
        opacity: 0;
      }

      .cls-2 {
        fill: #4092fb;
      }

      .cls-4 {
        fill: #ececec;
      }

      .cls-5 {
        fill: #cecece;
      }

      .cls-6 {
        filter: url(#填色_水滴_水_油-10);
      }

      .cls-7 {
        filter: url(#填色_水滴_水_油-9);
      }

      .cls-8 {
        filter: url(#填色_水滴_水_油-8);
      }

      .cls-9 {
        filter: url(#填色_水滴_水_油-7);
      }

      .cls-10 {
        filter: url(#联合_6-2);
      }

      .cls-11 {
        filter: url(#联合_6);
      }

      .cls-12 {
        filter: url(#联合_7-2);
      }

      .cls-13 {
        filter: url(#联合_7);
      }

      .cls-14 {
        filter: url(#填色_水滴_水_油-6);
      }

      .cls-15 {
        filter: url(#填色_水滴_水_油-5);
      }

      .cls-16 {
        filter: url(#填色_水滴_水_油-4);
      }

      .cls-17 {
        filter: url(#填色_水滴_水_油-3);
      }

      .cls-18 {
        filter: url(#填色_水滴_水_油-2);
      }

      .cls-19 {
        filter: url(#填色_水滴_水_油);
      }
    </style>
    <filter id="填色_水滴_水_油" x="65.695" y="39.178" width="30.24" height="32.62" filterUnits="userSpaceOnUse">
      <feOffset dy="3" input="SourceAlpha"/>
      <feGaussianBlur stdDeviation="3" result="blur"/>
      <feFlood flood-opacity="0.161"/>
      <feComposite operator="in" in2="blur"/>
      <feComposite in="SourceGraphic"/>
    </filter>
    <filter id="填色_水滴_水_油-2" x="65.695" y="39.178" width="30.24" height="32.62" filterUnits="userSpaceOnUse">
      <feOffset dy="3" input="SourceAlpha"/>
      <feGaussianBlur stdDeviation="3" result="blur-2"/>
      <feFlood flood-opacity="0.302" result="color"/>
      <feComposite operator="out" in="SourceGraphic" in2="blur-2"/>
      <feComposite operator="in" in="color"/>
      <feComposite operator="in" in2="SourceGraphic"/>
    </filter>
    <filter id="填色_水滴_水_油-3" x="14.455" y="39.178" width="30.892" height="33.12" filterUnits="userSpaceOnUse">
      <feOffset dy="3" input="SourceAlpha"/>
      <feGaussianBlur stdDeviation="3" result="blur-3"/>
      <feFlood flood-opacity="0.161"/>
      <feComposite operator="in" in2="blur-3"/>
      <feComposite in="SourceGraphic"/>
    </filter>
    <filter id="填色_水滴_水_油-4" x="14.455" y="39.178" width="30.892" height="33.12" filterUnits="userSpaceOnUse">
      <feOffset dy="3" input="SourceAlpha"/>
      <feGaussianBlur stdDeviation="3" result="blur-4"/>
      <feFlood flood-opacity="0.302" result="color-2"/>
      <feComposite operator="out" in="SourceGraphic" in2="blur-4"/>
      <feComposite operator="in" in="color-2"/>
      <feComposite operator="in" in2="SourceGraphic"/>
    </filter>
    <filter id="填色_水滴_水_油-5" x="40.041" y="38.683" width="30.892" height="33.12" filterUnits="userSpaceOnUse">
      <feOffset dy="3" input="SourceAlpha"/>
      <feGaussianBlur stdDeviation="3" result="blur-5"/>
      <feFlood flood-opacity="0.161"/>
      <feComposite operator="in" in2="blur-5"/>
      <feComposite in="SourceGraphic"/>
    </filter>
    <filter id="填色_水滴_水_油-6" x="40.041" y="38.683" width="30.892" height="33.12" filterUnits="userSpaceOnUse">
      <feOffset dy="3" input="SourceAlpha"/>
      <feGaussianBlur stdDeviation="3" result="blur-6"/>
      <feFlood flood-opacity="0.302" result="color-3"/>
      <feComposite operator="out" in="SourceGraphic" in2="blur-6"/>
      <feComposite operator="in" in="color-3"/>
      <feComposite operator="in" in2="SourceGraphic"/>
    </filter>
    <filter id="联合_7" x="0" y="0" width="92.457" height="64.555" filterUnits="userSpaceOnUse">
      <feOffset dy="3" input="SourceAlpha"/>
      <feGaussianBlur stdDeviation="3" result="blur-7"/>
      <feFlood flood-opacity="0.161"/>
      <feComposite operator="in" in2="blur-7"/>
      <feComposite in="SourceGraphic"/>
    </filter>
    <filter id="联合_7-2" x="0" y="0" width="92.457" height="64.555" filterUnits="userSpaceOnUse">
      <feOffset dy="3" input="SourceAlpha"/>
      <feGaussianBlur stdDeviation="1" result="blur-8"/>
      <feFlood flood-opacity="0.161" result="color-4"/>
      <feComposite operator="out" in="SourceGraphic" in2="blur-8"/>
      <feComposite operator="in" in="color-4"/>
      <feComposite operator="in" in2="SourceGraphic"/>
    </filter>
    <filter id="联合_6" x="30.835" y="8.112" width="80.391" height="58.876" filterUnits="userSpaceOnUse">
      <feOffset dy="3" input="SourceAlpha"/>
      <feGaussianBlur stdDeviation="3" result="blur-9"/>
      <feFlood flood-opacity="0.161"/>
      <feComposite operator="in" in2="blur-9"/>
      <feComposite in="SourceGraphic"/>
    </filter>
    <filter id="联合_6-2" x="30.835" y="8.112" width="80.391" height="58.876" filterUnits="userSpaceOnUse">
      <feOffset dy="3" input="SourceAlpha"/>
      <feGaussianBlur stdDeviation="1" result="blur-10"/>
      <feFlood flood-opacity="0.161" result="color-5"/>
      <feComposite operator="out" in="SourceGraphic" in2="blur-10"/>
      <feComposite operator="in" in="color-5"/>
      <feComposite operator="in" in2="SourceGraphic"/>
    </filter>
    <filter id="填色_水滴_水_油-7" x="52.931" y="52.289" width="30.892" height="33.12" filterUnits="userSpaceOnUse">
      <feOffset dy="3" input="SourceAlpha"/>
      <feGaussianBlur stdDeviation="3" result="blur-11"/>
      <feFlood flood-opacity="0.161"/>
      <feComposite operator="in" in2="blur-11"/>
      <feComposite in="SourceGraphic"/>
    </filter>
    <filter id="填色_水滴_水_油-8" x="52.931" y="52.289" width="30.892" height="33.12" filterUnits="userSpaceOnUse">
      <feOffset dy="3" input="SourceAlpha"/>
      <feGaussianBlur stdDeviation="3" result="blur-12"/>
      <feFlood flood-opacity="0.302" result="color-6"/>
      <feComposite operator="out" in="SourceGraphic" in2="blur-12"/>
      <feComposite operator="in" in="color-6"/>
      <feComposite operator="in" in2="SourceGraphic"/>
    </filter>
    <filter id="填色_水滴_水_油-9" x="26.085" y="52.289" width="30.892" height="33.12" filterUnits="userSpaceOnUse">
      <feOffset dy="3" input="SourceAlpha"/>
      <feGaussianBlur stdDeviation="3" result="blur-13"/>
      <feFlood flood-opacity="0.161"/>
      <feComposite operator="in" in2="blur-13"/>
      <feComposite in="SourceGraphic"/>
    </filter>
    <filter id="填色_水滴_水_油-10" x="26.085" y="52.289" width="30.892" height="33.12" filterUnits="userSpaceOnUse">
      <feOffset dy="3" input="SourceAlpha"/>
      <feGaussianBlur stdDeviation="3" result="blur-14"/>
      <feFlood flood-opacity="0.302" result="color-7"/>
      <feComposite operator="out" in="SourceGraphic" in2="blur-14"/>
      <feComposite operator="in" in="color-7"/>
      <feComposite operator="in" in2="SourceGraphic"/>
    </filter>
  </defs>
  <g id="cityIcon11" transform="translate(9 6)">
    <rect id="矩形_182" data-name="矩形 182" class="cls-1" width="93.225" height="67.409" transform="translate(0.014 0)"/>
    <g id="组_197" data-name="组 197" transform="translate(0 0)">
      <g data-type="innerShadowGroup">
        <g class="cls-19" transform="matrix(1, 0, 0, 1, -9, -6)">
          <path id="填色_水滴_水_油-11" data-name="填色,水滴,水,油" class="cls-2" d="M11.092,8.164A5.546,5.546,0,1,1,0,8.164C0,5.136,2.321,2.876,3.959.774a2.014,2.014,0,0,1,3.173,0C8.771,2.876,11.092,5.136,11.092,8.164Z" transform="translate(75.89 45.18) rotate(4.99)"/>
        </g>
        <g class="cls-18" transform="matrix(1, 0, 0, 1, -9, -6)">
          <path id="填色_水滴_水_油-12" data-name="填色,水滴,水,油" class="cls-3" d="M11.092,8.164A5.546,5.546,0,1,1,0,8.164C0,5.136,2.321,2.876,3.959.774a2.014,2.014,0,0,1,3.173,0C8.771,2.876,11.092,5.136,11.092,8.164Z" transform="translate(75.89 45.18) rotate(4.99)"/>
        </g>
      </g>
      <g data-type="innerShadowGroup">
        <g class="cls-17" transform="matrix(1, 0, 0, 1, -9, -6)">
          <path id="填色_水滴_水_油-13" data-name="填色,水滴,水,油" class="cls-2" d="M11.092,8.164A5.546,5.546,0,1,1,0,8.164C0,5.136,2.321,2.876,3.959.774a2.014,2.014,0,0,1,3.173,0C8.771,2.876,11.092,5.136,11.092,8.164Z" transform="translate(25.36 45.18) rotate(8)"/>
        </g>
        <g class="cls-16" transform="matrix(1, 0, 0, 1, -9, -6)">
          <path id="填色_水滴_水_油-14" data-name="填色,水滴,水,油" class="cls-3" d="M11.092,8.164A5.546,5.546,0,1,1,0,8.164C0,5.136,2.321,2.876,3.959.774a2.014,2.014,0,0,1,3.173,0C8.771,2.876,11.092,5.136,11.092,8.164Z" transform="translate(25.36 45.18) rotate(8)"/>
        </g>
      </g>
      <g data-type="innerShadowGroup">
        <g class="cls-15" transform="matrix(1, 0, 0, 1, -9, -6)">
          <path id="填色_水滴_水_油-15" data-name="填色,水滴,水,油" class="cls-2" d="M11.092,8.164A5.546,5.546,0,1,1,0,8.164C0,5.136,2.321,2.876,3.959.774a2.014,2.014,0,0,1,3.173,0C8.771,2.876,11.092,5.136,11.092,8.164Z" transform="translate(50.95 44.68) rotate(8)"/>
        </g>
        <g class="cls-14" transform="matrix(1, 0, 0, 1, -9, -6)">
          <path id="填色_水滴_水_油-16" data-name="填色,水滴,水,油" class="cls-3" d="M11.092,8.164A5.546,5.546,0,1,1,0,8.164C0,5.136,2.321,2.876,3.959.774a2.014,2.014,0,0,1,3.173,0C8.771,2.876,11.092,5.136,11.092,8.164Z" transform="translate(50.95 44.68) rotate(8)"/>
        </g>
      </g>
      <g id="组_12" data-name="组 12" transform="translate(0 0)">
        <g data-type="innerShadowGroup">
          <g class="cls-13" transform="matrix(1, 0, 0, 1, -9, -6)">
            <path id="联合_7-3" data-name="联合 7" class="cls-4" d="M12.411,46.555h-.035a12.448,12.448,0,0,1-1.41-24.81A12.451,12.451,0,0,1,23.354,10.594q.493,0,.977.038a16.192,16.192,0,0,1,31.3,3.769,16.183,16.183,0,1,1,3.1,32.146q-.121.006-.244.006Z" transform="translate(9.02 6)"/>
          </g>
          <g class="cls-12" transform="matrix(1, 0, 0, 1, -9, -6)">
            <path id="联合_7-4" data-name="联合 7" class="cls-3" d="M12.411,46.555h-.035a12.448,12.448,0,0,1-1.41-24.81A12.451,12.451,0,0,1,23.354,10.594q.493,0,.977.038a16.192,16.192,0,0,1,31.3,3.769,16.183,16.183,0,1,1,3.1,32.146q-.121.006-.244.006Z" transform="translate(9.02 6)"/>
          </g>
        </g>
        <g data-type="innerShadowGroup">
          <g class="cls-11" transform="matrix(1, 0, 0, 1, -9, -6)">
            <path id="联合_6-3" data-name="联合 6" class="cls-5" d="M19.68,32.127a15.944,15.944,0,0,1-3.6.409A16.174,16.174,0,0,1,0,16.267,16.174,16.174,0,0,1,16.079,0q.26,0,.517.008Q16.817,0,17.04,0H47a11.942,11.942,0,0,1,1.5.094A12.37,12.37,0,0,1,62.39,12.513,12.441,12.441,0,0,1,50.022,25.028h-.005a16.046,16.046,0,0,1-30.334,7.1Z" transform="translate(102.23 54.99) rotate(180)"/>
          </g>
          <g class="cls-10" transform="matrix(1, 0, 0, 1, -9, -6)">
            <path id="联合_6-4" data-name="联合 6" class="cls-3" d="M19.68,32.127a15.944,15.944,0,0,1-3.6.409A16.174,16.174,0,0,1,0,16.267,16.174,16.174,0,0,1,16.079,0q.26,0,.517.008Q16.817,0,17.04,0H47a11.942,11.942,0,0,1,1.5.094A12.37,12.37,0,0,1,62.39,12.513,12.441,12.441,0,0,1,50.022,25.028h-.005a16.046,16.046,0,0,1-30.334,7.1Z" transform="translate(102.23 54.99) rotate(180)"/>
          </g>
        </g>
      </g>
      <g data-type="innerShadowGroup">
        <g class="cls-9" transform="matrix(1, 0, 0, 1, -9, -6)">
          <path id="填色_水滴_水_油-17" data-name="填色,水滴,水,油" class="cls-2" d="M11.092,8.164A5.546,5.546,0,1,1,0,8.164C0,5.136,2.321,2.876,3.959.774a2.014,2.014,0,0,1,3.173,0C8.771,2.876,11.092,5.136,11.092,8.164Z" transform="translate(63.84 58.29) rotate(8)"/>
        </g>
        <g class="cls-8" transform="matrix(1, 0, 0, 1, -9, -6)">
          <path id="填色_水滴_水_油-18" data-name="填色,水滴,水,油" class="cls-3" d="M11.092,8.164A5.546,5.546,0,1,1,0,8.164C0,5.136,2.321,2.876,3.959.774a2.014,2.014,0,0,1,3.173,0C8.771,2.876,11.092,5.136,11.092,8.164Z" transform="translate(63.84 58.29) rotate(8)"/>
        </g>
      </g>
      <g data-type="innerShadowGroup">
        <g class="cls-7" transform="matrix(1, 0, 0, 1, -9, -6)">
          <path id="填色_水滴_水_油-19" data-name="填色,水滴,水,油" class="cls-2" d="M11.092,8.164A5.546,5.546,0,1,1,0,8.164C0,5.136,2.321,2.876,3.959.774a2.014,2.014,0,0,1,3.173,0C8.771,2.876,11.092,5.136,11.092,8.164Z" transform="translate(36.99 58.29) rotate(8)"/>
        </g>
        <g class="cls-6" transform="matrix(1, 0, 0, 1, -9, -6)">
          <path id="填色_水滴_水_油-20" data-name="填色,水滴,水,油" class="cls-3" d="M11.092,8.164A5.546,5.546,0,1,1,0,8.164C0,5.136,2.321,2.876,3.959.774a2.014,2.014,0,0,1,3.173,0C8.771,2.876,11.092,5.136,11.092,8.164Z" transform="translate(36.99 58.29) rotate(8)"/>
        </g>
      </g>
    </g>
  </g>
</svg>
