<svg id="countyTemperatureImg" xmlns="http://www.w3.org/2000/svg" width="35.946" height="70" viewBox="0 0 35.946 70">
  <defs>
    <style>
      .cls-1 {
        fill: #6e6e6e;
      }

      .cls-2 {
        fill: #ffd939;
      }
    </style>
  </defs>
  <path id="路径_69" data-name="路径 69" class="cls-1" d="M335.4,128c5.647,0,10.268,5.25,10.268,11.667v27.708A18.986,18.986,0,0,1,350.8,180.5c0,9.625-6.931,17.5-15.4,17.5S320,190.125,320,180.5a18.986,18.986,0,0,1,5.134-13.125V139.667C325.134,133.25,329.754,128,335.4,128Zm0,5.833c-2.824,0-4.877,2.333-5.134,5.538V170l-1.8,1.75a12.955,12.955,0,0,0-3.337,8.75c0,6.417,4.621,11.667,10.268,11.667s10.268-5.25,10.268-11.667a11.316,11.316,0,0,0-3.08-8.167l-.257-.583-1.8-1.75V139.667A5.542,5.542,0,0,0,335.4,133.833Zm17.968,23.333a2.424,2.424,0,0,1,1.9.841,2.8,2.8,0,0,1,.671,2.076,2.99,2.99,0,0,1-2.31,2.917H350.8a2.425,2.425,0,0,1-1.9-.841,2.8,2.8,0,0,1-.671-2.076,2.99,2.99,0,0,1,2.31-2.917Zm0-11.667a2.424,2.424,0,0,1,1.9.841,2.8,2.8,0,0,1,.671,2.076,2.99,2.99,0,0,1-2.31,2.917H350.8a2.424,2.424,0,0,1-1.9-.841,2.8,2.8,0,0,1-.671-2.076,2.99,2.99,0,0,1,2.31-2.917Zm0-11.667a2.424,2.424,0,0,1,1.9.841,2.8,2.8,0,0,1,.67,2.076,2.99,2.99,0,0,1-2.31,2.917H350.8a2.424,2.424,0,0,1-1.9-.841,2.8,2.8,0,0,1-.671-2.076,2.99,2.99,0,0,1,2.31-2.917Z" transform="translate(-320 -128)"/>
  <path id="路径_70" data-name="路径 70" class="cls-2" d="M438.679,384a2.9,2.9,0,0,1,2.673,2.534v19.148a7.139,7.139,0,0,1,4.01,6.477,6.693,6.693,0,1,1-13.366,0,7.139,7.139,0,0,1,4.01-6.477V386.534A2.9,2.9,0,0,1,438.679,384Z" transform="translate(-423.22 -359.054)"/>
</svg>
