<svg xmlns="http://www.w3.org/2000/svg" width="48.536" height="57.536" viewBox="0 0 48.536 57.536">
  <defs>
    <style>
      .cls-1 {
        fill: #4092fb;
      }

      .cls-2 {
        fill: none;
        stroke: #4092fb;
        stroke-linecap: round;
        stroke-width: 5px;
      }
    </style>
  </defs>
  <g id="组_217" data-name="组 217" transform="translate(-842.412 -6620.912)">
    <path id="减去_5" data-name="减去 5" class="cls-1" d="M31.635,46.924H5.752A5.816,5.816,0,0,1,0,41.058V24.344L23.871,0H38.644a.181.181,0,0,1,.18.183V2.749a.182.182,0,0,1-.18.184H37.566a.182.182,0,0,0-.18.184V41.058A5.816,5.816,0,0,1,31.635,46.924Zm-12.762-8.8a.182.182,0,0,0-.18.184v2.566a.181.181,0,0,0,.18.183H30.017a.181.181,0,0,0,.18-.183V38.309a.182.182,0,0,0-.18-.184Zm0-5.866a.182.182,0,0,0-.18.184v2.566a.182.182,0,0,0,.18.184H30.017a.182.182,0,0,0,.18-.184V32.443a.182.182,0,0,0-.18-.184Zm0-5.865a.182.182,0,0,0-.18.184v2.565a.182.182,0,0,0,.18.184H30.017a.182.182,0,0,0,.18-.184V26.578a.182.182,0,0,0-.18-.184Zm0-5.866a.182.182,0,0,0-.18.184v2.566a.181.181,0,0,0,.18.183H30.017a.181.181,0,0,0,.18-.183V20.712a.182.182,0,0,0-.18-.184Zm0-5.866a.182.182,0,0,0-.18.184v2.566a.182.182,0,0,0,.18.184H30.017a.182.182,0,0,0,.18-.184V14.847a.182.182,0,0,0-.18-.184Zm0-5.865a.181.181,0,0,0-.18.183v2.566a.182.182,0,0,0,.18.184H30.017a.182.182,0,0,0,.18-.184V8.981a.181.181,0,0,0-.18-.183Z" transform="translate(852.124 6631.524)"/>
    <line id="直线_3" data-name="直线 3" class="cls-2" x2="52.065" transform="translate(882.763 6624.448) rotate(135)"/>
  </g>
</svg>
