<svg xmlns="http://www.w3.org/2000/svg" width="50" height="50" viewBox="0 0 50 50">
  <defs>
    <style>
      .cls-1 {
        fill: #4092fb;
      }
    </style>
  </defs>
  <g id="comfort" transform="translate(-70.182 -70.182)">
    <path id="路径_84" data-name="路径 84" class="cls-1" d="M95.182,120.182a25,25,0,1,0-25-25A25,25,0,0,0,95.182,120.182Zm0-3.7a21.3,21.3,0,1,1,21.3-21.3,21.3,21.3,0,0,1-21.3,21.3Z" transform="translate(0 0)"/>
    <path id="路径_85" data-name="路径 85" class="cls-1" d="M286.949,618.9a16.109,16.109,0,0,0,23.735,0,1.991,1.991,0,0,0,0-2.7,1.726,1.726,0,0,0-2.543,0,12.657,12.657,0,0,1-18.647,0,1.726,1.726,0,0,0-2.543,0A1.992,1.992,0,0,0,286.949,618.9Z" transform="translate(-203.635 -514.778)"/>
    <path id="路径_86" data-name="路径 86" class="cls-1" d="M310.436,378.631m-2.981,0a2.981,2.981,0,1,0,2.981-2.981A2.981,2.981,0,0,0,307.455,378.631Z" transform="translate(-223.9 -288.252)"/>
    <path id="路径_87" data-name="路径 87" class="cls-1" d="M617.254,378.631m-2.981,0a2.981,2.981,0,1,0,2.981-2.981A2.981,2.981,0,0,0,614.273,378.631Z" transform="translate(-513.426 -288.252)"/>
  </g>
</svg>
