<svg id="CountyApparentTemperature" xmlns="http://www.w3.org/2000/svg" width="52.973" height="70" viewBox="0 0 52.973 70">
  <defs>
    <style>
      .cls-1 {
        fill: #ff4343;
      }

      .cls-2 {
        fill: #6e6e6e;
      }
    </style>
  </defs>
  <g id="温度_2_" data-name="温度 (2)" transform="translate(36.481 0)">
    <path id="路径_81" data-name="路径 81" class="cls-1" d="M421.733,639.165a3.333,3.333,0,1,1,3.333-3.333A3.332,3.332,0,0,1,421.733,639.165Zm0-3.387v.106l.051-.051a.051.051,0,0,0-.051-.055Z" transform="translate(-413.448 -612.26)"/>
    <path id="路径_82" data-name="路径 82" class="cls-2" d="M281.058,96.16a7.686,7.686,0,0,1-.857-.046,8.383,8.383,0,0,1-7.294-7.221,8.6,8.6,0,0,1,1.658-6.338V71.026a7.086,7.086,0,0,1,2.068-4.987,6.284,6.284,0,0,1,4.622-1.883,6.4,6.4,0,0,1,4.426,1.948,6.694,6.694,0,0,1,1.9,4.712V82.549a8.576,8.576,0,0,1-.99,11.446,8.157,8.157,0,0,1-5.535,2.166Zm.028-28.789a3.206,3.206,0,0,0-2.264.974,3.816,3.816,0,0,0-1.116,2.682V82.98a2.037,2.037,0,0,1-.486,1.324,5.256,5.256,0,0,0-1.2,4.153,5.177,5.177,0,0,0,4.5,4.457A4.989,4.989,0,0,0,284.49,91.6a5.307,5.307,0,0,0,.437-7.3,2.03,2.03,0,0,1-.486-1.324V70.819a3.466,3.466,0,0,0-.983-2.439,3.3,3.3,0,0,0-2.292-1.006.577.577,0,0,0-.079,0Zm6.206,14.819Z" transform="translate(-272.828 -64.154)"/>
    <path id="路径_83" data-name="路径 83" class="cls-1" d="M464.7,433.2h3.282v11.438H464.7Z" transform="translate(-458.056 -420.134)"/>
  </g>
  <path id="减去_3" data-name="减去 3" class="cls-2" d="M30.3,65.27H7.055l-.6-6.506H3.228A3.356,3.356,0,0,1,1.9,58.47a3.184,3.184,0,0,1-.98-.646A1.528,1.528,0,0,1,.39,57.39a1.634,1.634,0,0,1-.273-.568A5.166,5.166,0,0,1,0,55.473L2.767,34.318a4.418,4.418,0,0,1,.482-2,5.08,5.08,0,0,1,.568-.878,5.637,5.637,0,0,1,.742-.767,6.128,6.128,0,0,1,.893-.636,6.457,6.457,0,0,1,1.017-.481,6.591,6.591,0,0,1,2.3-.411h3.228a3.356,3.356,0,0,1,1.324.294,3.184,3.184,0,0,1,.98.646l4.147,3.761L22.6,30.554c.247-.126.457-.25.662-.369a3,3,0,0,1,1.646-.568h3.228a6.115,6.115,0,0,1,2.233.411,5.834,5.834,0,0,1,1.8,1.116,6.294,6.294,0,0,1,1.96,3.644l2.769,20.684a4.31,4.31,0,0,1-.462,2.351,3.184,3.184,0,0,1-.98.646,3.356,3.356,0,0,1-1.324.294H30.9ZM18.446,23.506a13.563,13.563,0,0,1-2.521-.235,13.03,13.03,0,0,1-2.343-.675,12.627,12.627,0,0,1-2.116-1.073A12.23,12.23,0,0,1,9.626,20.1a11.815,11.815,0,0,1-1.514-1.734,11.451,11.451,0,0,1-1.145-2,11.272,11.272,0,0,1-.725-2.217,11.535,11.535,0,0,1,0-4.789A11.274,11.274,0,0,1,6.965,7.14a11.446,11.446,0,0,1,1.146-2A11.816,11.816,0,0,1,9.624,3.408a12.227,12.227,0,0,1,1.843-1.422A12.624,12.624,0,0,1,13.582.911,13.028,13.028,0,0,1,15.925.235a13.637,13.637,0,0,1,5.042,0A13.029,13.029,0,0,1,23.31.91a12.624,12.624,0,0,1,2.115,1.076,12.228,12.228,0,0,1,1.84,1.419,11.812,11.812,0,0,1,1.514,1.734,11.446,11.446,0,0,1,1.143,2,11.272,11.272,0,0,1,.727,2.221,11.541,11.541,0,0,1,0,4.789,11.274,11.274,0,0,1-.722,2.218,11.446,11.446,0,0,1-1.143,2A11.816,11.816,0,0,1,27.27,20.1a12.229,12.229,0,0,1-1.84,1.425,12.622,12.622,0,0,1-2.116,1.073,13.028,13.028,0,0,1-2.343.675A13.562,13.562,0,0,1,18.446,23.506Z" transform="translate(0.005 4.729)"/>
</svg>
