<svg id="countyIcon" xmlns="http://www.w3.org/2000/svg" width="36" height="36" viewBox="0 0 36 36">
  <defs>
    <style>
      .cls-1 {
        fill: #b1b1b1;
      }

      .cls-2 {
        fill: #ffd939;
      }

      .cls-3 {
        fill: #4092fb;
      }
    </style>
  </defs>
  <path id="路径_78" data-name="路径 78" class="cls-1" d="M123.779,92.924V123.78H92.924V92.924h30.855m1.286-2.572H91.642a1.29,1.29,0,0,0-1.289,1.29v33.424a1.29,1.29,0,0,0,1.289,1.286h33.425a1.29,1.29,0,0,0,1.286-1.286V91.642a1.29,1.29,0,0,0-1.286-1.286Z" transform="translate(-90.353 -90.352)"/>
  <path id="路径_79" data-name="路径 79" class="cls-2" d="M214.709,213.419a1.3,1.3,0,1,1-1.3,1.3,1.3,1.3,0,0,1,1.3-1.3m0-2.6a3.887,3.887,0,1,0,2.753,1.139,3.892,3.892,0,0,0-2.753-1.139Zm-2.595,16.868a1.3,1.3,0,0,1-.831-2.3l6.954-5.8a2.587,2.587,0,0,1,3.322,0l6.123,5.112,6.954-5.8a1.3,1.3,0,0,1,1.66,2l-6.954,5.8a2.587,2.587,0,0,1-3.322,0l-6.123-5.112-6.954,5.8a1.33,1.33,0,0,1-.831.3Zm0,9.082a1.3,1.3,0,0,1-1.3-1.3v-5.19a1.3,1.3,0,1,1,2.595,0v5.192a1.3,1.3,0,0,1-1.3,1.295Z" transform="translate(-205.792 -205.798)"/>
  <path id="路径_80" data-name="路径 80" class="cls-3" d="M392.786,236.774a1.281,1.281,0,0,1-1.256-1.3v-9.083a1.257,1.257,0,1,1,2.512,0v9.085A1.28,1.28,0,0,1,392.786,236.774Zm7.536,0a1.281,1.281,0,0,1-1.254-1.3v-5.19a1.257,1.257,0,1,1,2.512,0v5.19A1.28,1.28,0,0,1,400.322,236.774Zm7.536,0a1.28,1.28,0,0,1-1.256-1.3v-9.083a1.257,1.257,0,1,1,2.512,0v9.085a1.28,1.28,0,0,1-1.256,1.3ZM406.6,217.31h-6.281a1.225,1.225,0,0,1-1.1-.639,1.353,1.353,0,0,1,0-1.316,1.225,1.225,0,0,1,1.1-.639H406.6a1.225,1.225,0,0,1,1.1.639,1.353,1.353,0,0,1,0,1.316,1.225,1.225,0,0,1-1.1.639Zm-10.049,0a1.83,1.83,0,0,1-.251-.026.782.782,0,0,1-.227-.079.939.939,0,0,1-.227-.117l-.188-.159a1.347,1.347,0,0,1,0-1.842,1.991,1.991,0,0,1,.188-.159.938.938,0,0,1,.227-.117.782.782,0,0,1,.227-.079,1.221,1.221,0,0,1,1.355.647,1.35,1.35,0,0,1-.212,1.546A1.3,1.3,0,0,1,396.554,217.31Zm10.049-3.892h-2.512a1.225,1.225,0,0,1-1.1-.639,1.353,1.353,0,0,1,0-1.316,1.225,1.225,0,0,1,1.1-.639H406.6a1.225,1.225,0,0,1,1.1.639,1.353,1.353,0,0,1,0,1.316,1.225,1.225,0,0,1-1.1.639Z" transform="translate(-378.143 -205.798)"/>
</svg>
