<svg xmlns="http://www.w3.org/2000/svg" width="45.53" height="43.531" viewBox="0 0 45.53 43.531">
  <defs>
    <style>
      .cls-1 {
        fill: #4092fb;
      }

      .cls-2 {
        fill: none;
        stroke: #4092fb;
        stroke-linecap: round;
        stroke-width: 5px;
      }

      .cls-3 {
        fill: #fff;
        font-size: 16px;
        font-family: ArialRoundedMTBold, Arial Rounded MT;
      }
    </style>
  </defs>
  <g id="countyRainProbability" transform="translate(-1301.72 -611.97)">
    <path id="减去_4" data-name="减去 4" class="cls-1" d="M14.281,33.879a6.83,6.83,0,0,1-6.864-5.254.911.911,0,0,1,.232-.8,1.092,1.092,0,0,1,.806-.345h2.157a1.02,1.02,0,0,1,.988.678,2.778,2.778,0,0,0,3.068,1.855,2.583,2.583,0,0,0,2.391-2.532V21.023a9.19,9.19,0,0,0-5.114,2.088,9.273,9.273,0,0,0-6.594-2.871A9.035,9.035,0,0,0,0,22.031L20.174,0A17.963,17.963,0,0,1,31.629,7.1a23.521,23.521,0,0,1,4.649,14.219v1.407a9.123,9.123,0,0,0-6.2-2.487,9.274,9.274,0,0,0-6.594,2.871,9.731,9.731,0,0,0-2.226-1.367V27.3a6.645,6.645,0,0,1-5.518,6.444A7.952,7.952,0,0,1,14.281,33.879Z" transform="translate(1310.97 621.621)"/>
    <line id="直线_2" data-name="直线 2" class="cls-2" x1="32.618" y2="36.471" transform="translate(1305.25 615.5)"/>
    <text id="_" data-name="%" class="cls-3" transform="translate(1326.619 639.237)"><tspan x="0" y="0">%</tspan></text>
  </g>
</svg>
