<svg xmlns="http://www.w3.org/2000/svg" xmlns:xlink="http://www.w3.org/1999/xlink" width="177.591" height="160" viewBox="0 0 177.591 160">
  <defs>
    <style>
      .cls-1, .cls-3 {
        fill: #fff;
      }

      .cls-1 {
        opacity: 0;
      }

      .cls-2 {
        fill: #4092fb;
      }

      .cls-4 {
        fill: #ececec;
      }

      .cls-5 {
        fill: #cecece;
      }

      .cls-6 {
        filter: url(#路径_9-2);
      }

      .cls-7 {
        filter: url(#路径_9);
      }

      .cls-8 {
        filter: url(#路径_8-2);
      }

      .cls-9 {
        filter: url(#路径_8);
      }

      .cls-10 {
        filter: url(#路径_7-2);
      }

      .cls-11 {
        filter: url(#路径_7);
      }

      .cls-12 {
        filter: url(#路径_6-2);
      }

      .cls-13 {
        filter: url(#路径_6);
      }

      .cls-14 {
        filter: url(#路径_5-2);
      }

      .cls-15 {
        filter: url(#路径_5);
      }

      .cls-16 {
        filter: url(#路径_4-2);
      }

      .cls-17 {
        filter: url(#路径_4);
      }

      .cls-18 {
        filter: url(#路径_3-2);
      }

      .cls-19 {
        filter: url(#路径_3);
      }
    </style>
    <filter id="路径_3" x="111.971" y="82.787" width="38.895" height="42.948" filterUnits="userSpaceOnUse">
      <feOffset dy="3" input="SourceAlpha"/>
      <feGaussianBlur stdDeviation="3" result="blur"/>
      <feFlood flood-opacity="0.161"/>
      <feComposite operator="in" in2="blur"/>
      <feComposite in="SourceGraphic"/>
    </filter>
    <filter id="路径_3-2" x="111.971" y="82.787" width="38.895" height="42.948" filterUnits="userSpaceOnUse">
      <feOffset dy="3" input="SourceAlpha"/>
      <feGaussianBlur stdDeviation="3" result="blur-2"/>
      <feFlood flood-opacity="0.302" result="color"/>
      <feComposite operator="out" in="SourceGraphic" in2="blur-2"/>
      <feComposite operator="in" in="color"/>
      <feComposite operator="in" in2="SourceGraphic"/>
    </filter>
    <filter id="路径_4" x="24.606" y="82.786" width="40.002" height="43.797" filterUnits="userSpaceOnUse">
      <feOffset dy="3" input="SourceAlpha"/>
      <feGaussianBlur stdDeviation="3" result="blur-3"/>
      <feFlood flood-opacity="0.161"/>
      <feComposite operator="in" in2="blur-3"/>
      <feComposite in="SourceGraphic"/>
    </filter>
    <filter id="路径_4-2" x="24.606" y="82.786" width="40.002" height="43.797" filterUnits="userSpaceOnUse">
      <feOffset dy="3" input="SourceAlpha"/>
      <feGaussianBlur stdDeviation="3" result="blur-4"/>
      <feFlood flood-opacity="0.302" result="color-2"/>
      <feComposite operator="out" in="SourceGraphic" in2="blur-4"/>
      <feComposite operator="in" in="color-2"/>
      <feComposite operator="in" in2="SourceGraphic"/>
    </filter>
    <filter id="路径_5" x="68.232" y="81.939" width="40.002" height="43.797" filterUnits="userSpaceOnUse">
      <feOffset dy="3" input="SourceAlpha"/>
      <feGaussianBlur stdDeviation="3" result="blur-5"/>
      <feFlood flood-opacity="0.161"/>
      <feComposite operator="in" in2="blur-5"/>
      <feComposite in="SourceGraphic"/>
    </filter>
    <filter id="路径_5-2" x="68.232" y="81.939" width="40.002" height="43.797" filterUnits="userSpaceOnUse">
      <feOffset dy="3" input="SourceAlpha"/>
      <feGaussianBlur stdDeviation="3" result="blur-6"/>
      <feFlood flood-opacity="0.302" result="color-3"/>
      <feComposite operator="out" in="SourceGraphic" in2="blur-6"/>
      <feComposite operator="in" in="color-3"/>
      <feComposite operator="in" in2="SourceGraphic"/>
    </filter>
    <filter id="路径_6" x="0" y="15.835" width="145.025" height="97.558" filterUnits="userSpaceOnUse">
      <feOffset dy="3" input="SourceAlpha"/>
      <feGaussianBlur stdDeviation="3" result="blur-7"/>
      <feFlood flood-opacity="0.161"/>
      <feComposite operator="in" in2="blur-7"/>
      <feComposite in="SourceGraphic"/>
    </filter>
    <filter id="路径_6-2" x="0" y="15.835" width="145.025" height="97.558" filterUnits="userSpaceOnUse">
      <feOffset dy="3" input="SourceAlpha"/>
      <feGaussianBlur stdDeviation="1" result="blur-8"/>
      <feFlood flood-opacity="0.161" result="color-4"/>
      <feComposite operator="out" in="SourceGraphic" in2="blur-8"/>
      <feComposite operator="in" in="color-4"/>
      <feComposite operator="in" in2="SourceGraphic"/>
    </filter>
    <filter id="路径_7" x="53.086" y="28.576" width="124.505" height="87.274" filterUnits="userSpaceOnUse">
      <feOffset dy="3" input="SourceAlpha"/>
      <feGaussianBlur stdDeviation="3" result="blur-9"/>
      <feFlood flood-opacity="0.161"/>
      <feComposite operator="in" in2="blur-9"/>
      <feComposite in="SourceGraphic"/>
    </filter>
    <filter id="路径_7-2" x="53.086" y="28.576" width="124.505" height="87.274" filterUnits="userSpaceOnUse">
      <feOffset dy="3" input="SourceAlpha"/>
      <feGaussianBlur stdDeviation="1" result="blur-10"/>
      <feFlood flood-opacity="0.161" result="color-5"/>
      <feComposite operator="out" in="SourceGraphic" in2="blur-10"/>
      <feComposite operator="in" in="color-5"/>
      <feComposite operator="in" in2="SourceGraphic"/>
    </filter>
    <filter id="路径_8" x="90.205" y="105.186" width="40.002" height="43.797" filterUnits="userSpaceOnUse">
      <feOffset dy="3" input="SourceAlpha"/>
      <feGaussianBlur stdDeviation="3" result="blur-11"/>
      <feFlood flood-opacity="0.161"/>
      <feComposite operator="in" in2="blur-11"/>
      <feComposite in="SourceGraphic"/>
    </filter>
    <filter id="路径_8-2" x="90.205" y="105.186" width="40.002" height="43.797" filterUnits="userSpaceOnUse">
      <feOffset dy="3" input="SourceAlpha"/>
      <feGaussianBlur stdDeviation="3" result="blur-12"/>
      <feFlood flood-opacity="0.302" result="color-6"/>
      <feComposite operator="out" in="SourceGraphic" in2="blur-12"/>
      <feComposite operator="in" in="color-6"/>
      <feComposite operator="in" in2="SourceGraphic"/>
    </filter>
    <filter id="路径_9" x="44.436" y="105.186" width="40.002" height="43.797" filterUnits="userSpaceOnUse">
      <feOffset dy="3" input="SourceAlpha"/>
      <feGaussianBlur stdDeviation="3" result="blur-13"/>
      <feFlood flood-opacity="0.161"/>
      <feComposite operator="in" in2="blur-13"/>
      <feComposite in="SourceGraphic"/>
    </filter>
    <filter id="路径_9-2" x="44.436" y="105.186" width="40.002" height="43.797" filterUnits="userSpaceOnUse">
      <feOffset dy="3" input="SourceAlpha"/>
      <feGaussianBlur stdDeviation="3" result="blur-14"/>
      <feFlood flood-opacity="0.302" result="color-7"/>
      <feComposite operator="out" in="SourceGraphic" in2="blur-14"/>
      <feComposite operator="in" in="color-7"/>
      <feComposite operator="in" in2="SourceGraphic"/>
    </filter>
  </defs>
  <g id="dateListIcon11" transform="translate(8.987)">
    <rect id="矩形_9" data-name="矩形 9" class="cls-1" width="159.834" height="160" transform="translate(-0.398)"/>
    <g id="组_9" data-name="组 9" transform="translate(0.015 21.842)">
      <g data-type="innerShadowGroup">
        <g class="cls-19" transform="matrix(1, 0, 0, 1, -9, -21.84)">
          <path id="路径_3-3" data-name="路径 3" class="cls-2" d="M18.931,13.923A9.466,9.466,0,1,1,0,13.923C0,8.755,3.961,4.9,6.76,1.32a3.435,3.435,0,0,1,5.414,0C14.972,4.9,18.931,8.755,18.931,13.923Z" transform="translate(123.01 88.79) rotate(4.99)"/>
        </g>
        <g class="cls-18" transform="matrix(1, 0, 0, 1, -9, -21.84)">
          <path id="路径_3-4" data-name="路径 3" class="cls-3" d="M18.931,13.923A9.466,9.466,0,1,1,0,13.923C0,8.755,3.961,4.9,6.76,1.32a3.435,3.435,0,0,1,5.414,0C14.972,4.9,18.931,8.755,18.931,13.923Z" transform="translate(123.01 88.79) rotate(4.99)"/>
        </g>
      </g>
      <g data-type="innerShadowGroup">
        <g class="cls-17" transform="matrix(1, 0, 0, 1, -9, -21.84)">
          <path id="路径_4-3" data-name="路径 4" class="cls-2" d="M18.931,13.923A9.466,9.466,0,1,1,0,13.923C0,8.755,3.961,4.9,6.76,1.32a3.435,3.435,0,0,1,5.414,0C14.972,4.9,18.931,8.755,18.931,13.923Z" transform="translate(36.86 88.79) rotate(8)"/>
        </g>
        <g class="cls-16" transform="matrix(1, 0, 0, 1, -9, -21.84)">
          <path id="路径_4-4" data-name="路径 4" class="cls-3" d="M18.931,13.923A9.466,9.466,0,1,1,0,13.923C0,8.755,3.961,4.9,6.76,1.32a3.435,3.435,0,0,1,5.414,0C14.972,4.9,18.931,8.755,18.931,13.923Z" transform="translate(36.86 88.79) rotate(8)"/>
        </g>
      </g>
      <g data-type="innerShadowGroup">
        <g class="cls-15" transform="matrix(1, 0, 0, 1, -9, -21.84)">
          <path id="路径_5-3" data-name="路径 5" class="cls-2" d="M18.931,13.923A9.466,9.466,0,1,1,0,13.923C0,8.755,3.961,4.9,6.76,1.32a3.435,3.435,0,0,1,5.414,0C14.972,4.9,18.931,8.755,18.931,13.923Z" transform="translate(80.49 87.94) rotate(8)"/>
        </g>
        <g class="cls-14" transform="matrix(1, 0, 0, 1, -9, -21.84)">
          <path id="路径_5-4" data-name="路径 5" class="cls-3" d="M18.931,13.923A9.466,9.466,0,1,1,0,13.923C0,8.755,3.961,4.9,6.76,1.32a3.435,3.435,0,0,1,5.414,0C14.972,4.9,18.931,8.755,18.931,13.923Z" transform="translate(80.49 87.94) rotate(8)"/>
        </g>
      </g>
      <g id="组_8" data-name="组 8">
        <g data-type="innerShadowGroup">
          <g class="cls-13" transform="matrix(1, 0, 0, 1, -9, -21.84)">
            <path id="路径_6-3" data-name="路径 6" class="cls-4" d="M98.449,79.533q-.266.016-.562.016H22.79q-.293,0-.58-.021-.479.021-.964.021a21.273,21.273,0,0,1-2.524-42.392A21.265,21.265,0,0,1,39.858,18.1q.841,0,1.667.064A27.629,27.629,0,0,1,94.947,24.6,27.653,27.653,0,1,1,99.42,79.552Q98.931,79.552,98.449,79.533Z" transform="translate(9 21.84)"/>
          </g>
          <g class="cls-12" transform="matrix(1, 0, 0, 1, -9, -21.84)">
            <path id="路径_6-4" data-name="路径 6" class="cls-3" d="M98.449,79.533q-.266.016-.562.016H22.79q-.293,0-.58-.021-.479.021-.964.021a21.273,21.273,0,0,1-2.524-42.392A21.265,21.265,0,0,1,39.858,18.1q.841,0,1.667.064A27.629,27.629,0,0,1,94.947,24.6,27.653,27.653,0,1,1,99.42,79.552Q98.931,79.552,98.449,79.533Z" transform="translate(9 21.84)"/>
          </g>
        </g>
        <g data-type="innerShadowGroup">
          <g class="cls-11" transform="matrix(1, 0, 0, 1, -9, -21.84)">
            <path id="路径_7-3" data-name="路径 7" class="cls-5" d="M33.6,54.409A27.542,27.542,0,1,1,27.45,0H80.395a20.194,20.194,0,0,1,2.463.151A21.191,21.191,0,1,1,85.4,42.39h0A27.427,27.427,0,0,1,33.6,54.412Z" transform="translate(168.59 103.85) rotate(180)"/>
          </g>
          <g class="cls-10" transform="matrix(1, 0, 0, 1, -9, -21.84)">
            <path id="路径_7-4" data-name="路径 7" class="cls-3" d="M33.6,54.409A27.542,27.542,0,1,1,27.45,0H80.395a20.194,20.194,0,0,1,2.463.151A21.191,21.191,0,1,1,85.4,42.39h0A27.427,27.427,0,0,1,33.6,54.412Z" transform="translate(168.59 103.85) rotate(180)"/>
          </g>
        </g>
      </g>
      <g data-type="innerShadowGroup">
        <g class="cls-9" transform="matrix(1, 0, 0, 1, -9, -21.84)">
          <path id="路径_8-3" data-name="路径 8" class="cls-2" d="M18.931,13.923A9.466,9.466,0,1,1,0,13.923C0,8.755,3.961,4.9,6.76,1.32a3.435,3.435,0,0,1,5.414,0C14.972,4.9,18.931,8.755,18.931,13.923Z" transform="translate(102.46 111.19) rotate(8)"/>
        </g>
        <g class="cls-8" transform="matrix(1, 0, 0, 1, -9, -21.84)">
          <path id="路径_8-4" data-name="路径 8" class="cls-3" d="M18.931,13.923A9.466,9.466,0,1,1,0,13.923C0,8.755,3.961,4.9,6.76,1.32a3.435,3.435,0,0,1,5.414,0C14.972,4.9,18.931,8.755,18.931,13.923Z" transform="translate(102.46 111.19) rotate(8)"/>
        </g>
      </g>
      <g data-type="innerShadowGroup">
        <g class="cls-7" transform="matrix(1, 0, 0, 1, -9, -21.84)">
          <path id="路径_9-3" data-name="路径 9" class="cls-2" d="M18.931,13.923A9.466,9.466,0,1,1,0,13.923C0,8.755,3.961,4.9,6.76,1.32a3.435,3.435,0,0,1,5.414,0C14.972,4.9,18.931,8.755,18.931,13.923Z" transform="translate(56.69 111.19) rotate(8)"/>
        </g>
        <g class="cls-6" transform="matrix(1, 0, 0, 1, -9, -21.84)">
          <path id="路径_9-4" data-name="路径 9" class="cls-3" d="M18.931,13.923A9.466,9.466,0,1,1,0,13.923C0,8.755,3.961,4.9,6.76,1.32a3.435,3.435,0,0,1,5.414,0C14.972,4.9,18.931,8.755,18.931,13.923Z" transform="translate(56.69 111.19) rotate(8)"/>
        </g>
      </g>
    </g>
  </g>
</svg>
