<svg xmlns="http://www.w3.org/2000/svg" width="24" height="24" viewBox="0 0 24 24">
  <defs>
    <style>
      .cls-1 {
        fill: #ee4e60;
      }

      .cls-2 {
        fill: #fff;
      }
    </style>
  </defs>
  <g id="signOut" transform="translate(2621 600)">
    <g id="组_94" data-name="组 94">
      <g id="组_93" data-name="组 93">
        <rect id="矩形_21" data-name="矩形 21" class="cls-1" width="24" height="24" rx="4" transform="translate(-2621 -600)"/>
        <g id="logout" transform="translate(-2618 -597)">
          <path id="路径_95" data-name="路径 95" class="cls-2" d="M13.442,15.24A7.6,7.6,0,0,1,3.5,14.47a7.776,7.776,0,0,1,0-10.939A7.665,7.665,0,0,1,5.932,1.874a7.61,7.61,0,0,1,7.51.886.622.622,0,0,0,.876-.135.636.636,0,0,0-.134-.884A8.857,8.857,0,0,0,5.445.707a8.881,8.881,0,0,0-2.833,1.93,9.042,9.042,0,0,0,0,12.727,8.881,8.881,0,0,0,2.833,1.93,8.857,8.857,0,0,0,8.739-1.034.636.636,0,0,0,.134-.884A.622.622,0,0,0,13.442,15.24Z"/>
          <path id="路径_96" data-name="路径 96" class="cls-2" d="M395.605,342.8l-2.482-2.482a.658.658,0,0,0-.93.93l1.358,1.358-8.793,0a.659.659,0,0,0,0,1.318l8.793,0-1.358,1.358a.658.658,0,0,0,.93.93l2.482-2.482A.664.664,0,0,0,395.605,342.8Z" transform="translate(-377.797 -334.266)"/>
        </g>
      </g>
    </g>
  </g>
</svg>
